<svg class="main-svg" xmlns="http://www.w3.org/2000/svg" xmlns:xlink="http://www.w3.org/1999/xlink" width="700" height="500" style="" viewBox="0 0 700 500"><rect x="0" y="0" width="700" height="500" style="fill: rgb(255, 255, 255); fill-opacity: 1;"/><defs id="defs-83ff9b"><g class="clips"><clipPath id="clip83ff9bgeo"><rect x="-2.842170943040401e-14" y="145.75108490898202" width="417" height="208.49783018203595"/></clipPath></g><g class="gradients"><linearGradient x1="1" x2="0" y1="0" y2="0" id="g83ff9b-legendfill-cf21f8"><stop offset="0%" stop-color="rgb(255, 255, 255)" stop-opacity="1"/><stop offset="100%" stop-color="rgb(255, 255, 255)" stop-opacity="1"/></linearGradient><linearGradient x1="1" x2="0" y1="0" y2="0" id="g83ff9b-legendfill-d1940d"><stop offset="0%" stop-color="rgb(225, 226, 236)" stop-opacity="1"/><stop offset="100%" stop-color="rgb(225, 226, 236)" stop-opacity="1"/></linearGradient><linearGradient x1="1" x2="0" y1="0" y2="0" id="g83ff9b-legendfill-ab9f70"><stop offset="0%" stop-color="rgb(196, 198, 217)" stop-opacity="1"/><stop offset="100%" stop-color="rgb(196, 198, 217)" stop-opacity="1"/></linearGradient><linearGradient x1="1" x2="0" y1="0" y2="0" id="g83ff9b-legendfill-ece675"><stop offset="0%" stop-color="rgb(167, 170, 198)" stop-opacity="1"/><stop offset="100%" stop-color="rgb(167, 170, 198)" stop-opacity="1"/></linearGradient><linearGradient x1="1" x2="0" y1="0" y2="0" id="g83ff9b-legendfill-6c06e4"><stop offset="0%" stop-color="rgb(139, 144, 179)" stop-opacity="1"/><stop offset="100%" stop-color="rgb(139, 144, 179)" stop-opacity="1"/></linearGradient><linearGradient x1="1" x2="0" y1="0" y2="0" id="g83ff9b-legendfill-e12876"><stop offset="0%" stop-color="rgb(111, 118, 161)" stop-opacity="1"/><stop offset="100%" stop-color="rgb(111, 118, 161)" stop-opacity="1"/></linearGradient><linearGradient x1="1" x2="0" y1="0" y2="0" id="g83ff9b-legendfill-c95011"><stop offset="0%" stop-color="rgb(82, 93, 143)" stop-opacity="1"/><stop offset="100%" stop-color="rgb(82, 93, 143)" stop-opacity="1"/></linearGradient><linearGradient x1="1" x2="0" y1="0" y2="0" id="g83ff9b-legendfill-59bd73"><stop offset="0%" stop-color="rgb(52, 70, 125)" stop-opacity="1"/><stop offset="100%" stop-color="rgb(52, 70, 125)" stop-opacity="1"/></linearGradient></g><g class="patterns"/></defs><g class="bglayer"/><g class="layer-below"><g class="imagelayer"/><g class="shapelayer"/></g><g class="cartesianlayer"/><g class="polarlayer"/><g class="smithlayer"/><g class="ternarylayer"/><g class="geolayer"><g class="geo geo" clip-path="url(#clip83ff9bgeo)"><g class="layer bg"><rect x="-2.842170943040401e-14" y="145.75108490898202" width="417" height="208.49783018203595" style="pointer-events: all; fill: rgb(255, 255, 255); fill-opacity: 1;"/></g><g class="layer backplot"><g class="choroplethlayer"><g class="trace choropleth"><path class="choroplethlocation" fill="rgb(255, 255, 255)" d="M196.401837943042,268.1242016702813L188.3171285900287,272.10097443453697L184.8013574540734,270.62693050263283L184.00557825454848,270.2589178295284L183.61459999605123,270.39879124396157L182.30681823613563,269.92214701881744L181.5873887752205,270.1835647106625L179.04085200544884,267.1360315289712L179.85595696173846,256.2763861597566L184.02962712227193,255.7686733973917L190.08751523609317,259.1807094174385L192.74684336205115,257.2141186757874L196.940229260988,258.61571268547004Z" style="stroke: rgb(68, 68, 68); stroke-opacity: 1; stroke-width: 1px; opacity: 1;"/><path class="choroplethlocation" fill="rgb(255, 255, 255)" d="M232.53086357085132,261.410191114903L239.3952770449093,254.74518825212795L239.8860039403415,252.82240544789715L254.531981040221,252.98151795650892L246.22537213475738,261.23959581359463L245.03683809371378,266.12346586959256L241.10729643904043,270.64608293422475L233.4194150691062,264.66619114815467Z" style="stroke: rgb(68, 68, 68); stroke-opacity: 1; stroke-width: 1px; opacity: 1;"/><path class="choroplethlocation" fill="rgb(255, 255, 255)" d="M294.03907095421295,230.95019857578268L291.1964947893335,232.68345030357887L284.3670930001776,232.05510322095984L283.7475421700764,234.97134258427036L278.0752159031037,233.27275589102987L279.9299685770187,230.3128819154722L279.0628227376019,222.4609916007953L282.9776317525897,220.3943922344506L282.90223530243065,217.01472469042073L284.3771458601989,217.02755075320624L294.7529540095987,217.11789649951766L294.7629202070338,217.11811315598334L298.3149596353933,224.46779378253132Z" style="stroke: rgb(68, 68, 68); stroke-opacity: 1; stroke-width: 1px; opacity: 1;"/><path class="choroplethlocation" fill="rgb(255, 255, 255)" d="M381.58882224090297,220.64012399815897L383.06221620340943,222.19697403135865L378.3345121280854,226.7411267487089L383.7921751685707,231.18839069447495L382.6175938039364,232.7808157193881L379.73437288604043,237.02333930480813L377.4160187062324,238.08504265067018L377.39976947128514,238.08547596360177L375.3793179321931,238.14150332570307L375.22765840601045,238.05484073931325L374.91012668947843,237.48464425216116L374.9719604448678,237.08421977174726L374.4779403711525,236.1873053339059L371.7349395180345,235.77583137372721L371.26691822023633,235.86687042072936L369.78048153847845,232.56082274383743L366.1361464556144,231.71157272851065L367.8954402906206,225.48495255898865L372.7401388575704,225.30716426300978Z" style="stroke: rgb(68, 68, 68); stroke-opacity: 1; stroke-width: 1px; opacity: 1;"/><path class="choroplethlocation" fill="rgb(255, 255, 255)" d="M317.10037517418147,216.78493884260774L320.2984412684324,219.48876820667692L320.7968811340535,224.76214325720412L314.4833383903819,227.35339792155264L308.6377736132168,227.74355288547986L305.7951541170445,227.71759744085603L302.65341870394695,223.77882622073207L298.3149596353933,224.46779378253132L294.7629202070338,217.11811315598334L297.2303340354318,217.17643707662387L307.627894494016,217.42203884645278L308.2172000814667,216.8153574104308L308.290906611191,216.63197937762993L308.5193491889149,216.63271600961411L308.51991249572586,216.6341459422897Z" style="stroke: rgb(68, 68, 68); stroke-opacity: 1; stroke-width: 1px; opacity: 1;"/><path class="choroplethlocation" fill="rgb(255, 255, 255)" d="M215.6281493900886,221.0232159612949L216.72321783171054,215.7206789504478L226.97522847645251,215.9833965810883L226.9983673870186,215.9857798022142L228.85632657663004,216.01641502650295L230.47115388012492,215.95748446775792L231.9842826384911,215.87888150190224L238.06920947926537,215.56282304933893L238.92287928649824,215.51849513640036L238.92309594296452,215.51849513640036L238.5507068092475,219.64441421183324L231.88072084775538,220.95262928468037L229.42756301481862,225.20030929399127L220.38635869582117,220.0299760586813Z" style="stroke: rgb(68, 68, 68); stroke-opacity: 1; stroke-width: 1px; opacity: 1;"/><path class="choroplethlocation" fill="rgb(255, 255, 255)" d="M325.5686531345557,242.33445591170812L327.3925539277163,238.97879390410822L330.3607475115678,234.8276560160357L341.9552916133678,245.0449149636363L341.31260187270107,245.95430881391803L341.97808387358805,247.81040475792156L341.09516544344876,249.3621416985245L339.1675295343806,251.5434823292494L339.11267211719553,251.5879402360672L338.25202597175826,252.2851407435735L337.7392867793831,252.49668411695097L333.21454648138445,252.42575078999084L333.210040026892,252.42406086955634L333.2141998310386,252.4266174158547L330.41170511236476,253.06705392927552L327.1289263399185,254.50586951981268L326.6705679205025,254.8024288904387L326.48675657476997,255.01657214140778L324.0908393801435,247.17915447865835Z" style="stroke: rgb(68, 68, 68); stroke-opacity: 1; stroke-width: 1px; opacity: 1;"/><path class="choroplethlocation" fill="rgb(255, 255, 255)" d="M212.89494140923276,263.2876060551587L211.3076728082102,273.46638681440186L200.71642146904517,270.28508993061814L196.23288923087463,271.5429107094799L196.401837943042,268.1242016702813L196.940229260988,258.61571268547004L198.58759836567194,255.5011893244996L201.33891882708318,257.322966884293L208.21082861486371,257.39398687383937Z" style="stroke: rgb(68, 68, 68); stroke-opacity: 1; stroke-width: 1px; opacity: 1;"/><path class="choroplethlocation" fill="rgb(255, 255, 255)" d="M245.6758013431659,225.0230843048239L248.99155522973314,218.45289031155949L253.35848295791598,217.47884617183104L262.514601866467,219.9312240414904L265.6672567654487,225.54032995169155L263.8602118453414,226.59774349952704L259.6537832271526,229.80122600542632L256.1572945166686,230.52442528884944L254.8920207553772,235.89364915992383L246.5524800670853,236.66199965085593L245.71315291789983,236.39516554736156L247.3201372573263,234.16568384989728L245.59780501541482,229.46735839135954Z" style="stroke: rgb(68, 68, 68); stroke-opacity: 1; stroke-width: 1px; opacity: 1;"/><path class="choroplethlocation" fill="rgb(255, 255, 255)" d="M308.63552038597,239.1740880425375L305.80841349276164,235.53443273933794L308.6377736132168,227.74355288547986L314.4833383903819,227.35339792155264L320.7968811340535,224.76214325720412L325.3988811278182,225.56364218743056L326.4952928395295,230.13929675493318L323.6179649775076,229.90106130494746L317.3175082843819,235.09657002160338L314.11090592537204,234.7802949125737L308.3223217987575,237.27288422231777L308.332461321365,237.62230777064133L308.9853339159331,238.95977146639575Z" style="stroke: rgb(68, 68, 68); stroke-opacity: 1; stroke-width: 1px; opacity: 1;"/><path class="choroplethlocation" fill="rgb(255, 255, 255)" d="M338.20362491726,216.93464846059624L344.90498273502527,216.93759498853365L339.7015010604214,219.13691810593423L337.0899240195639,218.2405669749046L325.3988811278182,225.56364218743056L320.7968811340535,224.76214325720412L320.2984412684324,219.48876820667692L317.10037517418147,216.78493884260774L325.5849890320902,216.7458106848528L326.7114293299853,216.93005534351755L326.72897850372976,216.93165860136583L326.77083653295614,216.9347351231827L336.32867986071574,216.93187525783173L336.3766476022831,216.93386849731905Z" style="stroke: rgb(68, 68, 68); stroke-opacity: 1; stroke-width: 1px; opacity: 1;"/><path class="choroplethlocation" fill="rgb(255, 255, 255)" d="M344.90498273502527,216.93759498853365L350.73967135759904,216.9403248600047L351.4286822506912,216.9403248600047L354.4923346734504,216.92294901143373L351.3941038787217,223.95557456567394L351.5890946980991,224.31955742851142L350.4456252019784,224.88234426452686L340.3053659623852,228.1545068701405L333.99073993638444,232.16702795128185L330.51219038128414,227.70407807737934L326.4952928395295,230.13929675493318L325.3988811278182,225.56364218743056L337.0899240195639,218.2405669749046L339.7015010604214,219.13691810593423Z" style="stroke: rgb(68, 68, 68); stroke-opacity: 1; stroke-width: 1px; opacity: 1;"/><path class="choroplethlocation" fill="rgb(255, 255, 255)" d="M133.4590181045835,255.29233249130016L133.17411485182726,249.65319799491476L133.59876152513726,246.74419495756752L141.070376410735,242.9661395039036L155.38218257749494,244.4345503676925L155.32052214727844,245.22400319841063L155.5042034991319,245.24081574017032L155.47534485786412,245.43597988471993L155.34630426672936,246.36482948564617L154.9117347272782,249.13751227460216L154.08653357967393,254.59552196543268L149.53289130911463,257.43723150444816L144.317753516641,259.34320176691904L138.80254651879304,257.68881299273767L135.71207202554604,259.59343998511986L132.00460324849593,257.2274213827982Z" style="stroke: rgb(68, 68, 68); stroke-opacity: 1; stroke-width: 1px; opacity: 1;"/><path class="choroplethlocation" fill="rgb(255, 255, 255)" d="M123.0847265504449,232.12958971396142L121.7355200742349,227.3567777624221L128.62190251394244,228.42199094303237L133.22897226901117,226.7097115611425L138.56461438785948,226.73471371731603L138.7986467024055,227.85625757907974L141.9802035739484,228.16247982808818L139.67216224192128,234.9592531534688L129.6318682957294,232.06051963260916Z" style="stroke: rgb(68, 68, 68); stroke-opacity: 1; stroke-width: 1px; opacity: 1;"/><path class="choroplethlocation" fill="rgb(255, 255, 255)" d="M215.0154015730194,224.82064050301733L215.02597440855888,224.76950957704753L215.31846063762444,222.93295604627428L215.32574029488129,222.91020711734677L215.6281493900886,221.0232159612949L220.38635869582117,220.0299760586813L229.42756301481862,225.20030929399127L229.33375076505172,226.41458212319208L229.4404757401905,229.5679303228651L227.76905776778312,232.15485185789453L217.09001722860538,232.35270254262218L214.2156358945208,230.1793782011382Z" style="stroke: rgb(68, 68, 68); stroke-opacity: 1; stroke-width: 1px; opacity: 1;"/><path class="choroplethlocation" fill="rgb(255, 255, 255)" d="M317.72347917032437,235.93342728707694L324.8315011747243,236.67794556675153L327.3925539277163,238.97879390410822L325.5686531345557,242.33445591170812L324.0908393801435,247.17915447865835L314.89026256477564,244.24072949323204L308.38259562759123,240.99837881733652L308.63552038597,239.1740880425375L308.9853339159331,238.95977146639575L308.332461321365,237.62230777064133L308.3223217987575,237.27288422231777L314.11090592537204,234.7802949125737L317.3175082843819,235.09657002160338L317.68157780980516,235.9371537782913Z" style="stroke: rgb(68, 68, 68); stroke-opacity: 1; stroke-width: 1px; opacity: 1;"/><path class="choroplethlocation" fill="rgb(255, 255, 255)" d="M396.18899816387466,216.15082869799357L394.86154399684847,217.18215680732578L393.8897530843667,219.2795213918389L393.54305940751385,219.43139757448694L393.8641442900881,220.3421780261508L393.88407668495836,220.38689592072774L393.90539568120965,220.4421433195514L393.9121120316555,220.50189717286685L393.9858618926727,220.63431760487083L393.98217873275144,220.673489093919L394.0055342997838,220.788620339938L393.97606902041105,220.82432532553025L393.89144300480143,220.96289880116797L393.8777936474445,220.97979800551366L393.8912263483351,221.08626299289358L393.9632862889182,221.12079803356983L394.0067909072859,221.16759583022053L394.0252500381871,221.28667022392028L394.0654614782717,221.3652298584825L394.0056642936628,221.66170256652208L393.2345839312596,223.02113522792592L393.2694656222816,223.12456702478244L392.97949260822134,225.87515085420864L392.7641794123357,227.9176146902439L392.54587635721987,227.88195303594466L391.815050766194,228.04795522017412L391.074735621959,227.9909312383295L390.00076952012375,227.57269759641235L389.82848429838043,227.04821562358143L389.51979216566036,227.15026081905535L387.1715393935482,228.05215835561376L384.86926112351676,229.5794131155617L384.4369881426035,230.2251793780456L383.7921751685707,231.18839069447495L378.3345121280854,226.7411267487089L383.06221620340943,222.19697403135865L381.58882224090297,220.64012399815897L388.39621173311644,216.05129671752502Z" style="stroke: rgb(68, 68, 68); stroke-opacity: 1; stroke-width: 1px; opacity: 1;"/><path class="choroplethlocation" fill="rgb(255, 255, 255)" d="M55.8122438959513,260.8382613760232L49.3585677500879,257.9182521902046L44.71951950064056,257.8163369886104L38.146985617543805,262.6888109144984L39.22441822283514,257.61068667110726L38.98271626939362,257.72763783144023L38.30514483770489,257.7823652547456L37.58575870808366,257.6026270505729L36.95164856346926,257.1512016380684L36.15565270747862,256.07181912458327L36.02006909107149,254.63265688370097L36.13394372958814,254.21875637110293L36.392891537721084,253.9974634567568L38.13836269019808,253.0917094351032L38.33153359526074,253.10613875573745L39.04714990237508,253.47467140435992L40.06075551279045,253.64717328256893L41.98531490004174,253.20783730086578L47.06985217482608,250.4534836489313L47.19247973456797,250.10917319320492L47.11283681767503,249.85239194973178L46.83646982967832,249.64622165671017L45.958751154721995,249.26832944875764L45.09615510109094,249.037676975081L44.23000588141821,248.664897859725L44.09767211200031,248.51150508181513L44.050137683366074,248.22556187802206L44.1297806002579,247.87774158754632L44.39137161727626,247.3761818688156L44.80964859048623,247.13707979296623L45.7813961716752,246.79554254000368L46.59065140338353,246.72846569813805L47.751626741954254,247.131490056144L47.76037966318003,246.76586060416525L59.93534643732593,244.979961355137L62.714442257675245,247.8253107227806L62.14229586232926,250.56813825072504L60.15893591021205,250.35052849630029Z" style="stroke: rgb(68, 68, 68); stroke-opacity: 1; stroke-width: 1px; opacity: 1;"/><path class="choroplethlocation" fill="rgb(255, 255, 255)" d="M271.44037162039217,258.9505335879869L276.49384035795526,268.7350862417429L276.84920029344664,271.6817875041695L272.75421976135533,273.62744923120727L263.73793093594475,275.55261525656397L256.95411366722993,270.8281610282297L258.93093059407477,267.0628449747651L267.36658009067315,258.06375867275324L268.90020455072056,258.07359487630833L268.9078308583232,258.5648850785524L269.6609720653439,258.55821205940015L269.6601487707727,258.7084416529069L270.0528169497052,258.7137280706768L270.0504770598728,258.3964563419038L270.42728598549604,258.3997928514798L270.497785999524,258.2077918913333L271.02716440848565,258.5384529897035L271.08696159309454,258.7178878748234L271.43456522710477,258.7803715996108Z" style="stroke: rgb(68, 68, 68); stroke-opacity: 1; stroke-width: 1px; opacity: 1;"/><path class="choroplethlocation" fill="rgb(255, 255, 255)" d="M171.67219227248242,274.5718547663905L168.28585170929995,272.38804425195326L165.93066593027729,267.9272609427103L170.75044900363963,263.22607561882205L173.6777811780083,255.3796450470877L177.8299156858242,255.22989209780621L177.98439174606403,255.4878866174888L178.37199016369254,255.52216167040592L178.34720466398463,255.79705539443466L179.74580881443697,256.14045589300395L179.85595696173846,256.2763861597566L179.04085200544884,267.1360315289712L181.5873887752205,270.1835647106625L181.45154517105425,271.8274239805978L175.199446201134,275.0397894016021Z" style="stroke: rgb(68, 68, 68); stroke-opacity: 1; stroke-width: 1px; opacity: 1;"/><path class="choroplethlocation" fill="rgb(255, 255, 255)" d="M267.1064623376243,257.447674346108L267.3659301212754,257.4478476712809L267.36658009067315,258.06375867275324L258.93093059407477,267.0628449747651L256.95411366722993,270.8281610282297L253.21956283193398,273.5270939561681L250.18667562734194,268.26234183298675L252.24014561184896,265.7757322417035L254.92256931707965,266.5904905476475L256.3559251646739,262.15570601432114L259.7819138611294,262.05461410729777L260.34955380198346,256.79601502774995L262.86064557392103,253.3733628408702Z" style="stroke: rgb(68, 68, 68); stroke-opacity: 1; stroke-width: 1px; opacity: 1;"/><path class="choroplethlocation" fill="rgb(255, 255, 255)" d="M272.75421976135533,273.62744923120727L276.84920029344664,271.6817875041695L276.49384035795526,268.7350862417429L271.44037162039217,258.9505335879869L275.8732062455254,256.8901739278624L286.0660263437628,259.54144243328597L290.6919885426654,262.5450810149705L294.49413619534585,262.1650655736514L295.91362602911806,265.90295291852385L295.91371269170423,265.9419510823993L295.898720064259,266.08676426425654L294.23020528849565,267.5728109643758L294.1286367372465,267.68776888522234L293.15342265260256,270.66254882563885L292.69467425154784,270.79527257669497L292.60146863988587,270.83786723790536L292.5760331707796,270.9023008708864L292.82003168276077,271.8483529952109L292.81877507525815,271.9008705225631L293.2984091596321,272.938005025183L293.207413443923,273.1806602670745L292.96809471160776,273.3857906090593L291.8120591404604,274.376647290547L290.00098441008606,275.27793818900136L289.2409535274471,275.1746797173182L289.2309439987192,275.1455177569976L288.9765459763721,275.1365915105994L288.81340365749315,275.17186318326003L285.4351227148454,274.91438863909616L285.0477842849766,274.4678163314293L284.53214189595633,274.33782245184466L284.35448359385765,274.38982000367855L281.6496576100454,276.22299369358234L281.55948518890636,277.04173847850006Z" style="stroke: rgb(68, 68, 68); stroke-opacity: 1; stroke-width: 1px; opacity: 1;"/><path class="choroplethlocation" fill="rgb(255, 255, 255)" d="M184.8013574540734,270.62693050263283L188.3171285900287,272.10097443453697L196.401837943042,268.1242016702813L196.23288923087463,271.5429107094799L193.7769148638801,280.49485256449566L191.69406626258763,280.60669063223145L190.56935921642057,275.79795703863374L184.71582148130636,272.4980624053753Z" style="stroke: rgb(68, 68, 68); stroke-opacity: 1; stroke-width: 1px; opacity: 1;"/><path class="choroplethlocation" fill="rgb(255, 255, 255)" d="M229.4404757401905,229.5679303228651L229.33375076505172,226.41458212319208L229.42756301481862,225.20030929399127L231.88072084775538,220.95262928468037L238.5507068092475,219.64441421183324L242.86299377671162,221.41813736747372L245.6758013431659,225.0230843048239L245.59780501541482,229.46735839135954L247.3201372573263,234.16568384989728L245.71315291789983,236.39516554736156L242.0484954585269,236.05848139923705L232.7203079846999,232.43355873572386Z" style="stroke: rgb(68, 68, 68); stroke-opacity: 1; stroke-width: 1px; opacity: 1;"/><path class="choroplethlocation" fill="rgb(255, 255, 255)" d="M238.92309594296452,215.51849513640036L246.72948839978682,215.69303358538923L247.15036525058827,215.7177324225106L251.98297438673688,216.04644361268697L256.9725727981312,216.38581430098952L256.9716628409738,216.38871749763348L260.19377780294707,216.52105126705078L261.7302621283456,218.68115956411043L262.514601866467,219.9312240414904L253.35848295791598,217.47884617183104L248.99155522973314,218.45289031155949L245.6758013431659,225.0230843048239L242.86299377671162,221.41813736747372L238.5507068092475,219.64441421183324Z" style="stroke: rgb(68, 68, 68); stroke-opacity: 1; stroke-width: 1px; opacity: 1;"/><path class="choroplethlocation" fill="rgb(255, 255, 255)" d="M272.75421976135533,273.62744923120727L281.55948518890636,277.04173847850006L280.8611580677773,281.960013581295L280.85513501802313,281.9778660740915L280.27913213758296,286.4996165128596L277.1564191621988,286.51434915254595L277.1144744703862,286.5159957416872L272.1682506834806,286.51586574780777L272.1321123849565,286.5168623675511L267.29647005828383,286.50303968502203L262.70547621299005,286.51642905461927L262.5500035330072,286.5134825266823L260.6074616590789,286.5259619391222L263.8969567819704,278.5887956394379L263.73793093594475,275.55261525656397Z" style="stroke: rgb(68, 68, 68); stroke-opacity: 1; stroke-width: 1px; opacity: 1;"/><path class="choroplethlocation" fill="rgb(255, 255, 255)" d="M226.73612640060304,262.90273750900155L232.53086357085132,261.410191114903L233.4194150691062,264.66619114815467L241.10729643904043,270.64608293422475L240.23512416961347,272.1713011233926L234.12177200050232,279.620297073943L231.64950506726768,274.61652932967445L226.6921018067177,272.1619848953558L229.85164638131707,268.38605267505795L224.57861798113547,262.960194803778Z" style="stroke: rgb(68, 68, 68); stroke-opacity: 1; stroke-width: 1px; opacity: 1;"/><path class="choroplethlocation" fill="rgb(255, 255, 255)" d="M308.8306411992264,261.3358346157804L308.83683757415406,256.07194911846295L303.7642164049986,248.7244350565752L303.5667990332026,248.35351918682682L303.57763185650117,247.9002305287147L303.1404624394579,247.5570466866111L309.1925441599907,243.88203304816466L308.38259562759123,240.99837881733652L314.89026256477564,244.24072949323204L324.0908393801435,247.17915447865835L326.48675657476997,255.01657214140778L326.6944867943464,255.26031066562905L326.54126734160866,255.84710303807447L324.68135824380397,257.4961620631932L321.6573972856112,258.3204099223467L318.2402481729672,259.4871049916196L316.7981827354405,260.7214835408629L316.8224049283368,260.8997484810668L316.7316692003868,261.01106657328455L316.51891255079926,261.37630604362425L315.96392534755904,261.60262538798133L309.80381871309146,261.46855836683653Z" style="stroke: rgb(68, 68, 68); stroke-opacity: 1; stroke-width: 1px; opacity: 1;"/><path class="choroplethlocation" fill="rgb(255, 255, 255)" d="M208.47813936258328,224.20373288180122L215.0154015730194,224.82064050301733L214.2156358945208,230.1793782011382L217.09001722860538,232.35270254262218L215.908502857059,236.96440874606333L204.97640756562242,238.9384958014366L201.6356948541749,229.84607389388316Z" style="stroke: rgb(68, 68, 68); stroke-opacity: 1; stroke-width: 1px; opacity: 1;"/><path class="choroplethlocation" fill="rgb(255, 255, 255)" d="M199.99504209993628,228.45336279930552L195.289696971901,227.60840258200506L197.66520512743253,221.5432348109273L200.27257903284948,223.4142367197901L208.47813936258328,224.20373288180122L201.6356948541749,229.84607389388316L201.29528421483536,229.47156152679963L200.45526376495937,228.76105831228278Z" style="stroke: rgb(68, 68, 68); stroke-opacity: 1; stroke-width: 1px; opacity: 1;"/><path class="choroplethlocation" fill="rgb(255, 255, 255)" d="M360.82814970182403,242.34931854527417L359.768569589329,243.02853656610432L359.7668363376015,243.03187307568032L358.9691505611762,243.6044961152511L358.9168063589965,243.6420643464512L358.6771843076288,243.72053731842698L356.7302659730882,244.63019115646784L355.02972937165447,244.18318553586892L354.4019455958462,243.82925553305313L354.23728668170605,242.6527675915181L354.7652784892855,240.94001156540276L355.8778961046513,239.26941688756642L355.10378255172407,238.4973399054195L358.02691159065273,236.21178751456114L361.9420672559853,235.96228592834473L366.1361464556144,231.71157272851065L369.78048153847845,232.56082274383743L371.26691822023633,235.86687042072936L370.7142275755357,236.5251160956534L370.6851089465088,236.56723411263852L370.64455085607847,236.60285243564476L370.5872668864748,236.63478759872942L366.79872525985735,237.49387381761198L366.6250534367318,237.57776320123708L365.79114269919614,237.64267347844316L365.2496315281394,237.8729793017742L365.0049397154672,238.00141325480377L364.7962128761478,238.05609734681548L364.6153047270593,238.08985242421454L363.14637388775134,239.05180713314144L362.825765649403,239.50782566272483Z" style="stroke: rgb(68, 68, 68); stroke-opacity: 1; stroke-width: 1px; opacity: 1;"/><path class="choroplethlocation" fill="rgb(255, 255, 255)" d="M308.6377736132168,227.74355288547986L305.80841349276164,235.53443273933794L296.7518698959732,234.59002720415515L294.03907095421295,230.95019857578268L298.3149596353933,224.46779378253132L302.65341870394695,223.77882622073207L305.7951541170445,227.71759744085603Z" style="stroke: rgb(68, 68, 68); stroke-opacity: 1; stroke-width: 1px; opacity: 1;"/><path class="choroplethlocation" fill="rgb(255, 255, 255)" d="M232.53086357085132,261.410191114903L226.73612640060304,262.90273750900155L225.12866541695175,259.22300075959697L224.77144223585339,251.54911539736486L230.34657641218925,250.3505718275935L239.2231651483394,251.61879211682208L239.05291649737654,251.85451435180244L239.61223682993628,252.08711673367247L240.15803779901978,251.9103250574376L239.8860039403415,252.82240544789715L239.3952770449093,254.74518825212795Z" style="stroke: rgb(68, 68, 68); stroke-opacity: 1; stroke-width: 1px; opacity: 1;"/><path class="choroplethlocation" fill="rgb(255, 255, 255)" d="M224.77144223585339,251.54911539736486L224.56700519455904,251.1916322285067L223.93432498262024,251.25385596553429L223.38618412370488,250.95894318404999L223.09109801704784,250.60791637787815L222.59638464264137,250.62030912773184L221.80103875604902,250.4349811867371L221.3168115545953,250.15168119182863L221.33878052024542,249.97800936870362L223.2786358539949,247.78674587183718L222.96331403341574,242.01376101077244L228.82521470811656,239.11559079672452L237.4897400953697,241.2971047526221L239.4464513021725,243.56931110517667L241.6602904027935,246.54942079465673L239.2231651483394,251.61879211682208L230.34657641218925,250.3505718275935Z" style="stroke: rgb(68, 68, 68); stroke-opacity: 1; stroke-width: 1px; opacity: 1;"/></g><g class="trace choropleth"><path class="choroplethlocation" fill="rgb(225, 226, 236)" d="M282.4579162220096,246.55869369140032L280.3575184469727,243.02970651102055L280.1440251654018,242.46951955259692L279.48495619590653,240.71728871838104L279.4759432869222,240.68461692331198L279.41497615739684,240.5437902204285L275.11555858401175,235.58231381831865L278.0752159031037,233.27275589102987L283.7475421700764,234.97134258427036L284.3670930001776,232.05510322095984L291.1964947893335,232.68345030357887L294.03907095421295,230.95019857578268L296.7518698959732,234.59002720415515L290.1525139423891,239.68002422188124L291.687568335112,241.0929276990878L285.76998694865614,242.96899936925433Z" style="stroke: rgb(68, 68, 68); stroke-opacity: 1; stroke-width: 1px; opacity: 1;"/><path class="choroplethlocation" fill="rgb(225, 226, 236)" d="M121.7355200742349,227.3567777624221L123.0847265504449,232.12958971396142L124.4089308704807,237.030835618531L120.86590435110608,241.4488942726839L120.3405990837038,244.97783812177022L124.11462472710092,245.68049837221906L122.51548335174343,249.55912575738853L122.24479276315454,250.08317441728786L122.16891966877014,250.65176764659145L113.19409889094736,249.34593579486955L111.47917630017228,249.3138273066122L111.69050301708427,237.45370570882005L117.29765901909155,231.54184405306592L117.10193156773023,227.10289971559314L121.29440750951024,227.0609983550737L121.39658269886431,227.07776756553994L121.64872749396521,227.23649009251312Z" style="stroke: rgb(68, 68, 68); stroke-opacity: 1; stroke-width: 1px; opacity: 1;"/><path class="choroplethlocation" fill="rgb(225, 226, 236)" d="M303.1404624394579,247.5570466866111L303.57763185650117,247.9002305287147L303.5667990332026,248.35351918682682L303.7642164049986,248.7244350565752L308.83683757415406,256.07194911846295L308.8306411992264,261.3358346157804L308.2538583555095,261.28596029731284L304.75923289063314,261.5756299923212L299.42268081462805,263.5194284737513L297.0913705781553,265.5259706677282L296.2767422660911,266.03186351577847L296.26781601969293,266.03740992130724L295.91375602299706,265.88540374477975L295.91362602911806,265.90295291852385L294.49413619534585,262.1650655736514L290.6919885426654,262.5450810149705L286.0660263437628,259.54144243328597L288.45995029890224,257.36690481559276L287.0215680212973,251.11103602316393L294.45678462061187,247.7033331324369L300.5760298455966,249.54972286676525Z" style="stroke: rgb(68, 68, 68); stroke-opacity: 1; stroke-width: 1px; opacity: 1;"/><path class="choroplethlocation" fill="rgb(225, 226, 236)" d="M263.73793093594475,275.55261525656397L263.8969567819704,278.5887956394379L260.6074616590789,286.5259619391222L259.2089441712133,286.5349748481067L259.163142994306,286.53597146785023L259.1071156322051,286.53432487870896L259.0956328395082,286.53397822836337L258.81237617589386,286.5279985099023L258.6737593689632,286.5210655029914L258.52071324139837,286.5299917493892L258.18320579870334,286.5171223553107L257.04649598432184,286.52830182895445L256.9042826800561,286.5263519207608L253.5247884611985,286.5209355091117L253.30319222780008,286.5231887363577L252.81775175013706,286.5246620003263L251.89262864042604,286.5316383385307L249.85302466974107,279.5483671272391L253.21956283193398,273.5270939561681L256.95411366722993,270.8281610282297Z" style="stroke: rgb(68, 68, 68); stroke-opacity: 1; stroke-width: 1px; opacity: 1;"/><path class="choroplethlocation" fill="rgb(225, 226, 236)" d="M212.53988479279442,249.6138531806937L208.2182382659996,254.16818875194463L208.21082861486371,257.39398687383937L201.33891882708318,257.322966884293L198.58759836567194,255.5011893244996L200.924585001553,244.64197726821658L206.92011938446717,244.35334752424546Z" style="stroke: rgb(68, 68, 68); stroke-opacity: 1; stroke-width: 1px; opacity: 1;"/><path class="choroplethlocation" fill="rgb(225, 226, 236)" d="M113.13698824651668,250.60496984994074L96.24341696861782,250.25641292748105L94.60484411645196,251.7935905535703L90.27392469291424,251.71901739798204L90.8849825895493,239.9471616444282L92.49781665355648,237.5816196863318L97.83861519629498,237.66490243185194L97.92038134655404,236.0981728638037L111.72781126052486,236.34078477440175L111.69050301708427,237.45370570882005L111.47917630017228,249.3138273066122L113.19409889094736,249.34593579486955L113.14552451127621,250.5128475206086Z" style="stroke: rgb(68, 68, 68); stroke-opacity: 1; stroke-width: 1px; opacity: 1;"/><path class="choroplethlocation" fill="rgb(225, 226, 236)" d="M151.81779373057512,228.71625375511917L156.551607518239,224.26829650866193L156.8092987188693,224.13687269640172L157.15876559848653,224.40795326662897L157.1809945518952,224.7572901523663L157.69035390340102,224.61230364533617L157.79313573086,224.3467261493447L157.72059914605103,223.3819982376533L159.01330161593526,222.93035616868247L164.71751971469925,226.6052831445429L167.99197887885163,226.08656423370644L164.33169788009215,237.09743581617158L161.8874229622602,240.69293653160548L160.53591992751117,240.7698062457332L159.63376240319332,240.70888244750108L158.0644329575527,240.5849116176705L156.3211283697352,240.51133508182556L157.73793166332916,235.0016744895065L156.54948428487285,229.05371786652108ZM157.64611265304939,230.14167997605887L158.06308968746387,230.07031333616692L158.19481681877684,229.99517687376692L158.06555957117638,229.90032467296328L157.98509335971335,230.0071363106888L157.86662560411807,229.95505209626845Z" style="stroke: rgb(68, 68, 68); stroke-opacity: 1; stroke-width: 1px; opacity: 1;"/><path class="choroplethlocation" fill="rgb(225, 226, 236)" d="M94.31240121867921,260.514663278444L99.00331702608085,263.8103981075551L105.12819531918167,264.64361554440006L105.26577217507538,267.84272158968724L105.23578692018447,268.28015099448976L105.65852701659351,268.3729666245133L105.49668463651062,268.7950567515247L105.2181077525605,268.79289018686495L105.19024573103627,269.4883574426433L93.12846029471537,270.3539866867982L89.71278444603972,275.27065853174486L87.02594094890331,275.26905527389636L84.43303969541336,267.45906631973935L91.61476822953762,264.80125478904324Z" style="stroke: rgb(68, 68, 68); stroke-opacity: 1; stroke-width: 1px; opacity: 1;"/><path class="choroplethlocation" fill="rgb(225, 226, 236)" d="M264.73342406580525,246.63283353405677L260.3453506665429,250.24900327634464L254.531981040221,252.98151795650892L239.8860039403415,252.82240544789715L240.15803779901978,251.9103250574376L239.61223682993628,252.08711673367247L239.05291649737654,251.85451435180244L239.2231651483394,251.61879211682208L241.6602904027935,246.54942079465673L239.4464513021725,243.56931110517667L240.21965489794238,238.30265240509493L246.5524800670853,236.66199965085593L254.8920207553772,235.89364915992383L262.9960991964486,242.88640992442492Z" style="stroke: rgb(68, 68, 68); stroke-opacity: 1; stroke-width: 1px; opacity: 1;"/><path class="choroplethlocation" fill="rgb(225, 226, 236)" d="M170.08384038912902,240.7303314376329L167.3001081204094,240.38151452741363L163.0317590842444,243.12434205535806L161.8874229622602,240.69293653160548L164.33169788009215,237.09743581617158L167.99197887885163,226.08656423370644L171.82458843064896,227.50562075454673L174.85730231006698,225.09536090187294L176.21357178706756,227.60060294923005L181.8123648494888,232.0453103486975L185.22240763004834,238.30646555889598L180.74615504913464,244.04292213979693L180.37762240051177,243.79147064538688L179.47238835437759,243.68769219818523L178.01641357173492,243.12538200639506L177.83117229332632,242.92202824743117L177.7640087888749,242.86782079964428L177.5824506703881,242.90083924505893L173.45293509762007,241.10614374351235Z" style="stroke: rgb(68, 68, 68); stroke-opacity: 1; stroke-width: 1px; opacity: 1;"/><path class="choroplethlocation" fill="rgb(225, 226, 236)" d="M120.56691842806094,267.6516739179906L121.97626873922569,268.05062513443613L121.57029785328213,269.00647013102275L119.82889984236556,268.998150522729L112.25016999998982,269.420067324568L110.42878242183507,267.6567870105878L110.36898523722614,263.0812191056714L112.64786460893241,259.6047494526438L113.13698824651668,250.60496984994074L113.14552451127621,250.5128475206086L113.19409889094736,249.34593579486955L122.16891966877014,250.65176764659145L119.39355033963601,254.91747347387104L119.34809581307509,259.05223213311524L122.00027427565522,263.42063312526693L119.06665906377381,266.73149057570345Z" style="stroke: rgb(68, 68, 68); stroke-opacity: 1; stroke-width: 1px; opacity: 1;"/><path class="choroplethlocation" fill="rgb(225, 226, 236)" d="M212.53988479279442,249.6138531806937L206.92011938446717,244.35334752424546L204.97640756562242,238.9384958014366L215.908502857059,236.96440874606333L222.96331403341574,242.01376101077244L223.2786358539949,247.78674587183718L221.33878052024542,249.97800936870362Z" style="stroke: rgb(68, 68, 68); stroke-opacity: 1; stroke-width: 1px; opacity: 1;"/><path class="choroplethlocation" fill="rgb(225, 226, 236)" d="M157.64611265304939,230.14167997605887L157.86662560411807,229.95505209626845L157.98509335971335,230.0071363106888L158.06555957117638,229.90032467296328L158.19481681877684,229.99517687376692L158.06308968746387,230.07031333616692ZM155.38218257749494,244.4345503676925L141.070376410735,242.9661395039036L139.67216224192128,234.9592531534688L141.9802035739484,228.16247982808818L151.81779373057512,228.71625375511917L156.54948428487285,229.05371786652108L157.73793166332916,235.0016744895065L156.3211283697352,240.51133508182556Z" style="stroke: rgb(68, 68, 68); stroke-opacity: 1; stroke-width: 1px; opacity: 1;"/><path class="choroplethlocation" fill="rgb(225, 226, 236)" d="M56.64190816675355,233.45123748769947L70.8765413003336,233.79706453868835L70.4890728765852,241.5375067672676L69.38681144029258,242.67642647760226L65.42875779469725,247.5877685734863L62.714442257675245,247.8253107227806L59.93534643732593,244.979961355137L47.76037966318003,246.76586060416525L47.804360925772585,244.93156030063847L46.37243501085388,243.7657751885224L45.80371178767061,242.63968154097324L46.937388411529184,242.62351896861128L47.65781449218733,241.58989430074007L47.790061599018486,241.1906830965354L47.912039189362105,240.42497581448833L50.52075636486845,237.95912191264551L51.48700087182195,237.48923736923985L51.830878014616445,237.15471978577534L51.934656461818435,236.42216094302216L51.81367549121785,235.92987412103503L51.26739787790953,235.24861952942433L50.781047443090216,234.86786745612085L50.29469700827036,234.63318517217726Z" style="stroke: rgb(68, 68, 68); stroke-opacity: 1; stroke-width: 1px; opacity: 1;"/><path class="choroplethlocation" fill="rgb(225, 226, 236)" d="M193.7512194070159,286.3809321007989L193.68552916653232,284.5889231394301L193.7769148638801,280.49485256449566L196.23288923087463,271.5429107094799L200.71642146904517,270.28508993061814L211.3076728082102,273.46638681440186L211.5448249758665,274.0152643053018L212.1829215994546,274.8467484904188L212.47081471144097,275.27806818288104L212.98095402622516,276.14868052575343L213.06553671054147,276.3187558515431L213.45941816568325,286.50087312036226L194.07564079916614,286.3830553341654Z" style="stroke: rgb(68, 68, 68); stroke-opacity: 1; stroke-width: 1px; opacity: 1;"/><path class="choroplethlocation" fill="rgb(225, 226, 236)" d="M90.8849825895493,239.9471616444282L90.27392469291424,251.71901739798204L81.42771119329363,251.44772017128867L81.20165183669667,251.44897677879112L72.82046977564409,248.64162895527966L69.38681144029258,242.67642647760226L70.4890728765852,241.5375067672676L70.8765413003336,233.79706453868835L79.2495337469725,233.92892166388015L79.30989423839296,233.01034157944127L84.46436822039311,237.31482891413043Z" style="stroke: rgb(68, 68, 68); stroke-opacity: 1; stroke-width: 1px; opacity: 1;"/><path class="choroplethlocation" fill="rgb(225, 226, 236)" d="M171.67219227248242,274.5718547663905L171.32532527045723,286.3541966928974L171.32255206769224,286.3541966928974L170.88507933159602,286.35003688875054L170.74087278784373,286.3472636859865L170.20560132300744,286.3458770846039L165.65698548245825,286.23997540403593L165.52196517286268,286.2336490352295L165.4189666889385,286.2308758324648L165.3410136924808,286.2350789679049L164.23194924315723,286.20873354164223L163.74806869204988,286.20695695862105L155.09979253974402,286.03961150430246L154.84309795885673,286.03423842394636L154.5237463280105,286.02648212246436L155.28096067659163,267.22590063105736L158.9942358469291,266.25298310495214L165.93066593027729,267.9272609427103L168.28585170929995,272.38804425195326Z" style="stroke: rgb(68, 68, 68); stroke-opacity: 1; stroke-width: 1px; opacity: 1;"/><path class="choroplethlocation" fill="rgb(225, 226, 236)" d="M355.10378255172407,238.4973399054195L355.8778961046513,239.26941688756642L354.7652784892855,240.94001156540276L354.0577651339992,240.21538234930426L353.49185844487374,239.8189443478641L353.27953510821874,239.81461121854477L351.268963103975,240.6682810257778L349.8910279803762,241.6151131133795L348.1967744164558,242.47952908132493L347.14989037286637,243.758322206093L344.9188920801407,245.570436887504L343.94645119826066,244.8720664350817L343.01027860878423,244.71568379794144L341.9553349446612,245.04487163234285L341.9552916133678,245.0449149636363L330.3607475115678,234.8276560160357L333.99073993638444,232.16702795128185L340.3053659623852,228.1545068701405L350.4456252019784,224.88234426452686L353.6055597582169,224.83346656580306L352.8200500751801,236.32215231832856Z" style="stroke: rgb(68, 68, 68); stroke-opacity: 1; stroke-width: 1px; opacity: 1;"/><path class="choroplethlocation" fill="rgb(225, 226, 236)" d="M224.57861798113547,262.960194803778L229.85164638131707,268.38605267505795L226.6921018067177,272.1619848953558L220.15483959628102,273.4637002742238L218.82478555166338,276.66830939374654L213.06553671054147,276.3187558515431L212.98095402622516,276.14868052575343L212.47081471144097,275.27806818288104L212.1829215994546,274.8467484904188L211.5448249758665,274.0152643053018L211.3076728082102,273.46638681440186L212.89494140923276,263.2876060551587Z" style="stroke: rgb(68, 68, 68); stroke-opacity: 1; stroke-width: 1px; opacity: 1;"/><path class="choroplethlocation" fill="rgb(225, 226, 236)" d="M317.72347917032437,235.93342728707694L317.68157780980516,235.9371537782913L317.3175082843819,235.09657002160338L323.6179649775076,229.90106130494746L326.4952928395295,230.13929675493318L330.51219038128414,227.70407807737934L333.99073993638444,232.16702795128185L330.3607475115678,234.8276560160357L327.3925539277163,238.97879390410822L324.8315011747243,236.67794556675153Z" style="stroke: rgb(68, 68, 68); stroke-opacity: 1; stroke-width: 1px; opacity: 1;"/><path class="choroplethlocation" fill="rgb(225, 226, 236)" d="M245.03683809371378,266.12346586959256L250.18667562734194,268.26234183298675L253.21956283193398,273.5270939561681L249.85302466974107,279.5483671272391L251.89262864042604,286.5316383385307L251.7675311969722,286.532591626981L248.9426775310095,286.56673668601843L248.93700113160114,286.5656967349819L243.07124397180615,286.6007084198834L242.83933489062682,286.60417492333886L241.5112740854963,286.61804093716137L241.45494340434288,286.61804093716137L241.33794891271657,286.62237406648114L241.28161823156373,286.62670719580024L240.91330223940656,286.62670719580024L240.6879361834996,286.62670719580024L239.8473090955187,286.6397065837589L239.40966303425012,286.6440397130782L238.94164173645197,286.64837284239775L238.86797853802042,286.64837284239775L238.13377310612637,286.66241218139294L237.8309740292799,286.67003848899503L237.65899212658957,286.67003848899503L237.53766450564368,286.6743716183146L235.12575806382898,286.7177029115094L230.3353536072515,286.69183412947245L235.21068739849053,282.19400256454765L234.12177200050232,279.620297073943L240.23512416961347,272.1713011233926L241.10729643904043,270.64608293422475Z" style="stroke: rgb(68, 68, 68); stroke-opacity: 1; stroke-width: 1px; opacity: 1;"/><path class="choroplethlocation" fill="rgb(225, 226, 236)" d="M109.7166759494696,286.1939142393694L105.14869102086287,286.18841116513363L104.41305565629216,286.18754453927L105.19024573103627,269.4883574426433L105.2181077525605,268.79289018686495L105.49668463651062,268.7950567515247L105.65852701659351,268.3729666245133L105.23578692018447,268.28015099448976L105.26577217507538,267.84272158968724L110.42878242183507,267.6567870105878L112.25016999998982,269.420067324568L119.82889984236556,268.998150522729L121.69890513148542,273.18521005286016L121.55456859385303,285.72623959191696L112.99516492388962,285.6631492290253L112.23192752555485,286.186504588233L109.90239387210302,286.1900144229819Z" style="stroke: rgb(68, 68, 68); stroke-opacity: 1; stroke-width: 1px; opacity: 1;"/><path class="choroplethlocation" fill="rgb(225, 226, 236)" d="M110.42878242183507,267.6567870105878L105.26577217507538,267.84272158968724L105.12819531918167,264.64361554440006L99.00331702608085,263.8103981075551L94.31240121867921,260.514663278444L94.60484411645196,251.7935905535703L96.24341696861782,250.25641292748105L113.13698824651668,250.60496984994074L112.64786460893241,259.6047494526438L110.36898523722614,263.0812191056714Z" style="stroke: rgb(68, 68, 68); stroke-opacity: 1; stroke-width: 1px; opacity: 1;"/><path class="choroplethlocation" fill="rgb(225, 226, 236)" d="M121.29440750951024,227.0609983550737L117.10193156773023,227.10289971559314L117.29765901909155,231.54184405306592L111.69050301708427,237.45370570882005L111.72781126052486,236.34078477440175L97.92038134655404,236.0981728638037L98.52701945128283,220.9383732892195L98.70363780234516,220.93512344222972L98.71880375496326,220.93724667559627L99.70285742341972,220.9541025486492L99.70870714800101,220.9541025486492L100.42415012994189,220.95583580037692L101.29168595099684,220.96259548211538L101.39490109138784,220.95267261597405L102.8595421326685,220.96762191212588L106.56701090971804,220.97737145309497L106.77950757154595,220.97945135516807L107.00054049813282,220.98166125112107L118.591748090358,221.12474118125078L118.36694534126259,223.63388304499517Z" style="stroke: rgb(68, 68, 68); stroke-opacity: 1; stroke-width: 1px; opacity: 1;"/><path class="choroplethlocation" fill="rgb(225, 226, 236)" d="M141.070376410735,242.9661395039036L133.59876152513726,246.74419495756752L133.17411485182726,249.65319799491476L127.48107622670656,251.15553726127519L122.51548335174343,249.55912575738853L124.11462472710092,245.68049837221906L120.3405990837038,244.97783812177022L120.86590435110608,241.4488942726839L124.4089308704807,237.030835618531L123.0847265504449,232.12958971396142L129.6318682957294,232.06051963260916L139.67216224192128,234.9592531534688Z" style="stroke: rgb(68, 68, 68); stroke-opacity: 1; stroke-width: 1px; opacity: 1;"/><path class="choroplethlocation" fill="rgb(225, 226, 236)" d="M305.80841349276164,235.53443273933794L308.63552038597,239.1740880425375L308.38259562759123,240.99837881733652L309.1925441599907,243.88203304816466L303.1404624394579,247.5570466866111L300.5760298455966,249.54972286676525L294.45678462061187,247.7033331324369L287.0215680212973,251.11103602316393L282.8134061513805,247.13175004390314L282.59631637247395,246.8880981822681L282.4579162220096,246.55869369140032L285.76998694865614,242.96899936925433L291.687568335112,241.0929276990878L290.1525139423891,239.68002422188124L296.7518698959732,234.59002720415515Z" style="stroke: rgb(68, 68, 68); stroke-opacity: 1; stroke-width: 1px; opacity: 1;"/><path class="choroplethlocation" fill="rgb(225, 226, 236)" d="M62.574612174534735,220.86128691862564L61.965200867042086,224.93152528230303L58.342444768188386,232.41223973947217L56.64190816675355,233.45123748769947L50.29469700827036,234.63318517217726L47.24569056261112,231.90322703831157L47.61439653640579,231.74311790995603L48.18905614675765,231.90756016763112L51.46802176540251,232.34858606976877L52.02322562510844,232.30482146364193L54.10052782087209,231.9245893658565L54.39847379288085,231.72158225723865L54.36450205901622,230.94313557499186L54.1929968005507,230.64731283635024L53.962907633685546,230.51341914037766L53.55160699867946,230.63071695105668L52.502859709482976,230.17287850715934L51.05875770117635,229.2728442162079L50.69321491178417,228.66975927752105L50.71293065018807,228.38637262002612L50.884479239946415,228.10302929382487L51.10772206248669,227.91423484937445L51.325288485618614,227.83658517196955L52.36662612367812,227.83125542290645L53.285119545530534,228.03105601582797L53.95385139340786,228.07165743755172L54.52513116288927,227.96605907603544L55.08072500423438,227.5607381594907L55.33299979321538,227.07122454026785L55.489859074581005,226.41397548508735L55.0590160263439,222.0655068878052L54.921525833036924,221.81045889606048L54.20976601101674,221.0783333662389L55.989122234772736,221.09193939230227L56.22740101605157,221.0967924971401L56.54939585578268,221.10038899447522L56.18588963717099,221.92333691483282L56.198759031249494,222.2949460852726L56.501341451629685,222.66343540260186L57.12951520907663,222.86358264586943L57.61837885890125,222.81422830292013L58.13696777585767,222.54210778165634L58.96706535959305,221.78576005893888L59.487820841208986,221.04228173030083L60.06759354415709,221.0376019506357L61.02612508092116,220.99769382960335L61.100091598405726,220.98235455181202L62.11803033814007,220.9052681812184Z" style="stroke: rgb(68, 68, 68); stroke-opacity: 1; stroke-width: 1px; opacity: 1;"/><path class="choroplethlocation" fill="rgb(225, 226, 236)" d="M139.30150635993232,268.73179306346015L144.78430155047076,267.7712249559154L144.79881753369057,266.15834756061463L151.46971345234007,266.7289340294051L151.43903489675805,266.83934216446596L154.3556642417077,267.3938093921877L154.42590426797653,266.90949552814845L155.28096067659163,267.22590063105736L154.5237463280105,286.02648212246436L154.24248290388272,286.0196791094329L152.53219676147907,285.9804209577983L151.26817960769083,285.95767202887123L149.09875508259438,285.9253035528541L148.66414221184985,285.91832721464993L147.7199533331321,285.9055444831574L147.27611089693696,285.8944516720994L146.14577078265435,285.88166894060714L145.96624923494804,285.8812356276751L145.65989699205986,285.8762091976646L137.97214561600578,285.85246364899353L138.71735719637184,283.46542936947276Z" style="stroke: rgb(68, 68, 68); stroke-opacity: 1; stroke-width: 1px; opacity: 1;"/><path class="choroplethlocation" fill="rgb(225, 226, 236)" d="M149.53289130911463,257.43723150444816L151.67172394121468,262.25068820900424L151.46971345234007,266.7289340294051L144.79881753369057,266.15834756061463L144.78430155047076,267.7712249559154L139.30150635993232,268.73179306346015L133.13949314856436,265.0532695902648L135.71207202554604,259.59343998511986L138.80254651879304,257.68881299273767L144.317753516641,259.34320176691904Z" style="stroke: rgb(68, 68, 68); stroke-opacity: 1; stroke-width: 1px; opacity: 1;"/><path class="choroplethlocation" fill="rgb(225, 226, 236)" d="M178.20156818755677,286.3409373171801L173.60793113337866,286.34722035469304L173.60706450751408,286.34722035469304L172.00341667766415,286.3541966928974L171.32532527045723,286.3541966928974L171.67219227248242,274.5718547663905L175.199446201134,275.0397894016021L181.45154517105425,271.8274239805978L181.5873887752205,270.1835647106625L182.30681823613563,269.92214701881744L183.61459999605123,270.39879124396157L184.00557825454848,270.2589178295284L184.8013574540734,270.62693050263283L184.71582148130636,272.4980624053753L190.56935921642057,275.79795703863374L191.69406626258763,280.60669063223145L193.7769148638801,280.49485256449566L193.68552916653232,284.5889231394301L193.7512194070159,286.3809321007989L190.35222610622066,286.35870314738963L188.76092769493104,286.3836186409769L187.29325346312632,286.4006478392023L184.6636072730068,286.4012978086005L183.47723979662322,286.38855840840097L182.811974452202,286.38682515667324L182.04306065445832,286.3787655361391L181.5630799197385,286.3769022905319L179.77900058502433,286.3552366439342L178.98179145282438,286.3529834166882L178.49461772343443,286.3439705077035L178.3426548781999,286.34392717641026L178.2401330385,286.3409373171801Z" style="stroke: rgb(68, 68, 68); stroke-opacity: 1; stroke-width: 1px; opacity: 1;"/><path class="choroplethlocation" fill="rgb(225, 226, 236)" d="M287.0215680212973,251.11103602316393L288.45995029890224,257.36690481559276L286.0660263437628,259.54144243328597L275.8732062455254,256.8901739278624L271.44037162039217,258.9505335879869L271.43456522710477,258.7803715996108L271.08696159309454,258.7178878748234L271.02716440848565,258.5384529897035L270.497785999524,258.2077918913333L270.42728598549604,258.3997928514798L270.0504770598728,258.3964563419038L270.0528169497052,258.7137280706768L269.6601487707727,258.7084416529069L269.6609720653439,258.55821205940015L268.9078308583232,258.5648850785524L268.90020455072056,258.07359487630833L282.8134061513805,247.13175004390314Z" style="stroke: rgb(68, 68, 68); stroke-opacity: 1; stroke-width: 1px; opacity: 1;"/><path class="choroplethlocation" fill="rgb(225, 226, 236)" d="M216.72183123032778,215.7206356191548L216.72321783171054,215.7206789504478L215.6281493900886,221.0232159612949L215.32574029488129,222.91020711734677L215.31846063762444,222.93295604627428L215.02597440855888,224.76950957704753L215.0154015730194,224.82064050301733L208.47813936258328,224.20373288180122L200.27257903284948,223.4142367197901L197.66520512743253,221.5432348109273L198.66035160694665,214.94340221311745L198.6867403645025,214.94522212743186L199.0024521667203,214.96160135625905L204.01280626755488,215.2005734382294L204.0681836602581,215.196586959255L205.90109736240254,215.33247389471467L206.1275900319315,215.3494164303538L206.1435792791208,215.35140966984068L208.5852543193607,215.43664232355513Z" style="stroke: rgb(68, 68, 68); stroke-opacity: 1; stroke-width: 1px; opacity: 1;"/><path class="choroplethlocation" fill="rgb(225, 226, 236)" d="M94.60484411645196,251.7935905535703L94.31240121867921,260.514663278444L91.61476822953762,264.80125478904324L84.43303969541336,267.45906631973935L74.15186709035055,267.30298700165145L74.55623471844564,255.98264332318809L76.6614422670269,256.92002918887374L82.20880108442528,252.03243264166076L81.20165183669667,251.44897677879112L81.42771119329363,251.44772017128867L90.27392469291424,251.71901739798204Z" style="stroke: rgb(68, 68, 68); stroke-opacity: 1; stroke-width: 1px; opacity: 1;"/><path class="choroplethlocation" fill="rgb(225, 226, 236)" d="M226.6921018067177,272.1619848953558L231.64950506726768,274.61652932967445L234.12177200050232,279.620297073943L235.21068739849053,282.19400256454765L230.3353536072515,286.69183412947245L224.67225690573,286.6612422364765L215.17204419791875,286.5111426368494L214.9851563303694,286.5101460171061L213.45941816568325,286.50087312036226L213.06553671054147,276.3187558515431L218.82478555166338,276.66830939374654L220.15483959628102,273.4637002742238Z" style="stroke: rgb(68, 68, 68); stroke-opacity: 1; stroke-width: 1px; opacity: 1;"/><path class="choroplethlocation" fill="rgb(225, 226, 236)" d="M138.12094527683666,224.5111250757261L138.08528362253793,224.21122919552408L136.45056725546624,215.01910198232895L139.75319176019644,214.97243417955792L139.83448126622955,214.97243417955792L145.31775310099283,214.90163084647747L145.81606297273436,214.88863145851906L146.2797078099196,214.88863145851906L149.16180211419308,214.87160226029323L149.32061130375192,214.86856906977005L149.67380467458378,214.86713913709445L152.0342335400839,214.85769291517795L152.16890719933366,214.85955616078536L153.50104114602462,214.85422641172227L154.22112057633748,214.85218984094217L154.24308954198708,214.85188652189004L159.24989047677943,214.82939758072166L159.01330161593526,222.93035616868247L157.72059914605103,223.3819982376533L157.79313573086,224.3467261493447L157.69035390340102,224.61230364533617L157.1809945518952,224.7572901523663L157.15876559848653,224.40795326662897L156.8092987188693,224.13687269640172L156.551607518239,224.26829650866193L151.81779373057512,228.71625375511917L141.9802035739484,228.16247982808818L138.7986467024055,227.85625757907974L138.56461438785948,226.73471371731603Z" style="stroke: rgb(68, 68, 68); stroke-opacity: 1; stroke-width: 1px; opacity: 1;"/><path class="choroplethlocation" fill="rgb(225, 226, 236)" d="M263.8602118453414,226.59774349952704L267.7488920905319,230.95024190707568L275.11555858401175,235.58231381831865L279.41497615739684,240.5437902204285L274.8980354921732,243.27335837265537L267.9388131486053,244.7829772962732L264.73342406580525,246.63283353405677L262.9960991964486,242.88640992442492L254.8920207553772,235.89364915992383L256.1572945166686,230.52442528884944L259.6537832271526,229.80122600542632Z" style="stroke: rgb(68, 68, 68); stroke-opacity: 1; stroke-width: 1px; opacity: 1;"/><path class="choroplethlocation" fill="rgb(225, 226, 236)" d="M62.574612174534735,220.86128691862564L62.5747421684143,220.86128691862564L65.33732876605609,220.70650753933342L65.47629222333202,220.71825031978938L68.40904080934939,220.75642518909422L70.48807625684165,220.80426293678147L70.49695917194643,220.80443626195415L72.3783605911764,220.84235114349963L72.47663596414239,220.84425772040026L73.66352341604357,220.8534006232644L74.44469996976139,220.85959699819114L75.01870961071495,220.86358347716487L76.06828019448153,220.87194641675183L77.11733080273046,220.88295256522292L77.27393009633641,220.88407917884615L77.56693630092127,220.88628907479892L79.1091836883138,220.90544150639107L82.99799392738443,220.89439202662675L84.72513594283973,220.87424297529105L84.73553545320684,220.8741129814116L85.0529371758593,220.87679952158965L85.52442497711353,224.86847825070413L79.72734791703283,224.93278188980594L79.30989423839296,233.01034157944127L79.2495337469725,233.92892166388015L70.8765413003336,233.79706453868835L56.64190816675355,233.45123748769947L58.342444768188386,232.41223973947217L61.965200867042086,224.93152528230303Z" style="stroke: rgb(68, 68, 68); stroke-opacity: 1; stroke-width: 1px; opacity: 1;"/><path class="choroplethlocation" fill="rgb(225, 226, 236)" d="M133.4590181045835,255.29233249130016L132.00460324849593,257.2274213827982L135.71207202554604,259.59343998511986L133.13949314856436,265.0532695902648L122.06310465078819,266.0663118938685L120.56691842806094,267.6516739179906L119.06665906377381,266.73149057570345L122.00027427565522,263.42063312526693L119.34809581307509,259.05223213311524L119.39355033963601,254.91747347387104L122.16891966877014,250.65176764659145L122.24479276315454,250.08317441728786L122.51548335174343,249.55912575738853L127.48107622670656,251.15553726127519L133.17411485182726,249.65319799491476Z" style="stroke: rgb(68, 68, 68); stroke-opacity: 1; stroke-width: 1px; opacity: 1;"/><path class="choroplethlocation" fill="rgb(225, 226, 236)" d="M217.09001722860538,232.35270254262218L227.76905776778312,232.15485185789453L229.4404757401905,229.5679303228651L232.7203079846999,232.43355873572386L242.0484954585269,236.05848139923705L245.71315291789983,236.39516554736156L246.5524800670853,236.66199965085593L240.21965489794238,238.30265240509493L239.4464513021725,243.56931110517667L237.4897400953697,241.2971047526221L228.82521470811656,239.11559079672452L222.96331403341574,242.01376101077244L215.908502857059,236.96440874606333Z" style="stroke: rgb(68, 68, 68); stroke-opacity: 1; stroke-width: 1px; opacity: 1;"/><path class="choroplethlocation" fill="rgb(225, 226, 236)" d="M262.86064557392103,253.3733628408702L260.34955380198346,256.79601502774995L259.7819138611294,262.05461410729777L256.3559251646739,262.15570601432114L254.92256931707965,266.5904905476475L252.24014561184896,265.7757322417035L250.18667562734194,268.26234183298675L245.03683809371378,266.12346586959256L246.22537213475738,261.23959581359463L254.531981040221,252.98151795650892L260.3453506665429,250.24900327634464Z" style="stroke: rgb(68, 68, 68); stroke-opacity: 1; stroke-width: 1px; opacity: 1;"/><path class="choroplethlocation" fill="rgb(225, 226, 236)" d="M280.1440251654018,242.46951955259692L280.3575184469727,243.02970651102055L282.4579162220096,246.55869369140032L282.59631637247395,246.8880981822681L282.8134061513805,247.13175004390314L268.90020455072056,258.07359487630833L267.36658009067315,258.06375867275324L267.3659301212754,257.4478476712809L267.1064623376243,257.447674346108L262.86064557392103,253.3733628408702L260.3453506665429,250.24900327634464L264.73342406580525,246.63283353405677L267.9388131486053,244.7829772962732L274.8980354921732,243.27335837265537L279.41497615739684,240.5437902204285L279.4759432869222,240.68461692331198L279.48495619590653,240.71728871838104Z" style="stroke: rgb(68, 68, 68); stroke-opacity: 1; stroke-width: 1px; opacity: 1;"/><path class="choroplethlocation" fill="rgb(225, 226, 236)" d="M167.99197887885163,226.08656423370644L164.71751971469925,226.6052831445429L159.01330161593526,222.93035616868247L159.24989047677943,214.82939758072166L159.25019379583188,214.82939758072166L161.59584669035146,214.78615295011332L168.2801319785982,214.66296208356016L168.3043975027874,214.66092551277984L170.54700858208946,214.63570670014042L171.461862175314,214.62158069855877L172.10099874993904,214.60299157377835L172.19715088953834,214.599395076443L172.3336011318095,214.60264492343276L174.48898631791042,214.54804749400705L174.67856072563796,214.54323772046246L181.2877095514848,214.40938735578334L181.3462934598844,214.40860739250616L183.11377690930436,215.21469943981083L177.28580463717537,225.01285811962975L174.85730231006698,225.09536090187294L171.82458843064896,227.50562075454673Z" style="stroke: rgb(68, 68, 68); stroke-opacity: 1; stroke-width: 1px; opacity: 1;"/><path class="choroplethlocation" fill="rgb(225, 226, 236)" d="M189.48620688042746,240.86704166766276L194.11511560726677,243.5949198994549L200.924585001553,244.64197726821658L198.58759836567194,255.5011893244996L196.940229260988,258.61571268547004L192.74684336205115,257.2141186757874L190.08751523609317,259.1807094174385L184.02962712227193,255.7686733973917L179.85595696173846,256.2763861597566L179.74580881443697,256.14045589300395L178.34720466398463,255.79705539443466L178.37199016369254,255.52216167040592L177.98439174606403,255.4878866174888L177.8299156858242,255.22989209780621L180.98725036447127,251.75125588011883L180.74615504913464,244.04292213979693L185.22240763004834,238.30646555889598Z" style="stroke: rgb(68, 68, 68); stroke-opacity: 1; stroke-width: 1px; opacity: 1;"/><path class="choroplethlocation" fill="rgb(225, 226, 236)" d="M260.1962910179524,216.52113792963723L260.49467030289316,216.52763762361633L282.90223530243065,217.01472469042073L282.9776317525897,220.3943922344506L279.0628227376019,222.4609916007953L279.9299685770187,230.3128819154722L278.0752159031037,233.27275589102987L275.11555858401175,235.58231381831865L267.7488920905319,230.95024190707568L263.8602118453414,226.59774349952704L265.6672567654487,225.54032995169155L262.514601866467,219.9312240414904L261.7302621283456,218.68115956411043L260.19377780294707,216.52105126705078Z" style="stroke: rgb(68, 68, 68); stroke-opacity: 1; stroke-width: 1px; opacity: 1;"/><path class="choroplethlocation" fill="rgb(225, 226, 236)" d="M138.12094527683666,224.5111250757261L138.56461438785948,226.73471371731603L133.22897226901117,226.7097115611425L128.62190251394244,228.42199094303237L121.7355200742349,227.3567777624221L121.64872749396521,227.23649009251312L121.39658269886431,227.07776756553994L121.29440750951024,227.0609983550737L118.36694534126259,223.63388304499517L118.591748090358,221.12474118125078L118.59551791286542,221.12478451254378L119.19019658067309,220.54938827020896L119.26208319608268,220.40024195903197L119.49316898269139,219.23844332588988L119.35728204723235,218.32527965310032L118.94554809929423,216.5399003795908L118.49156614049106,215.1198905703004L117.9454185210623,214.0783362757743L117.84471659567771,213.28229708849085L120.3899967579467,213.3296581919526L127.41941579649061,213.9070043424813L127.26181988314053,215.22661554543947L134.15227546440852,215.0710128715766L136.45039393029387,215.01910198232895L136.45056725546624,215.01910198232895L138.08528362253793,224.21122919552408Z" style="stroke: rgb(68, 68, 68); stroke-opacity: 1; stroke-width: 1px; opacity: 1;"/><path class="choroplethlocation" fill="rgb(225, 226, 236)" d="M354.4923346734504,216.92294901143373L356.5766565387123,216.89257377490412L356.63298721986575,216.89257377490412L356.87044270657395,216.88928059662112L368.1573779579837,216.85942533560979L370.34734151605414,216.85361894232165L371.0675509402471,216.85171236542124L371.1081523619703,216.851669034128L371.2065577288164,216.85266565387178L371.28160752863016,216.84863584360437L371.74559901616067,216.84664260411728L371.76761131310366,216.85045575791855L372.721159751151,216.87615121478302L373.0570206047047,216.88702736937512L373.20837681183485,216.89396037628626L373.3498534841161,216.9009367144904L374.35752270736344,216.8980768491399L374.45103163807846,216.89612694094603L374.55931653977234,216.89638692870517L383.74234418139633,216.91800924400923L384.24065405313786,215.96472079372143L388.39621173311644,216.05129671752502L381.58882224090297,220.64012399815897L372.7401388575704,225.30716426300978L367.8954402906206,225.48495255898865L361.8980859933928,223.3531395963853L351.3941038787217,223.95557456567394Z" style="stroke: rgb(68, 68, 68); stroke-opacity: 1; stroke-width: 1px; opacity: 1;"/><path class="choroplethlocation" fill="rgb(225, 226, 236)" d="M197.66520512743253,221.5432348109273L195.289696971901,227.60840258200506L194.63123464051128,229.07586015734387L187.9898906638207,228.12278836352175L184.01584777103605,228.77392770636152L181.8123648494888,232.0453103486975L176.21357178706756,227.60060294923005L174.85730231006698,225.09536090187294L177.28580463717537,225.01285811962975L183.11377690930436,215.21469943981083L183.11850002026256,215.2168660044706L187.04630842320842,214.42827979961635L187.04994825183684,214.42806314315044L187.10294242341428,214.4242933206424L187.26296488918294,214.4209134797734L189.7376150435439,214.47685417928778L193.13201522726052,214.55363723082928L197.93745564257597,214.8953911402573L198.07048271268388,214.89829433690124L198.1862205968081,214.90821720304325L198.1960568003631,214.91116373098043L198.66035160694665,214.94340221311745Z" style="stroke: rgb(68, 68, 68); stroke-opacity: 1; stroke-width: 1px; opacity: 1;"/><path class="choroplethlocation" fill="rgb(225, 226, 236)" d="M226.73612640060304,262.90273750900155L224.57861798113547,262.960194803778L212.89494140923276,263.2876060551587L208.21082861486371,257.39398687383937L208.2182382659996,254.16818875194463L212.53988479279442,249.6138531806937L221.33878052024542,249.97800936870362L221.3168115545953,250.15168119182863L221.80103875604902,250.4349811867371L222.59638464264137,250.62030912773184L223.09109801704784,250.60791637787815L223.38618412370488,250.95894318404999L223.93432498262024,251.25385596553429L224.56700519455904,251.1916322285067L224.77144223585339,251.54911539736486L225.12866541695175,259.22300075959697Z" style="stroke: rgb(68, 68, 68); stroke-opacity: 1; stroke-width: 1px; opacity: 1;"/><path class="choroplethlocation" fill="rgb(225, 226, 236)" d="M366.1361464556144,231.71157272851065L361.9420672559853,235.96228592834473L358.02691159065273,236.21178751456114L355.10378255172407,238.4973399054195L352.8200500751801,236.32215231832856L353.6055597582169,224.83346656580306L350.4456252019784,224.88234426452686L351.5890946980991,224.31955742851142L351.3941038787217,223.95557456567394L361.8980859933928,223.3531395963853L367.8954402906206,225.48495255898865Z" style="stroke: rgb(68, 68, 68); stroke-opacity: 1; stroke-width: 1px; opacity: 1;"/><path class="choroplethlocation" fill="rgb(225, 226, 236)" d="M121.55456859385303,285.72623959191696L121.69890513148542,273.18521005286016L119.82889984236556,268.998150522729L121.57029785328213,269.00647013102275L121.97626873922569,268.05062513443613L120.56691842806094,267.6516739179906L122.06310465078819,266.0663118938685L133.13949314856436,265.0532695902648L139.30150635993232,268.73179306346015L138.71735719637184,283.46542936947276L137.97214561600578,285.85246364899353L135.45494413172673,285.84466401621853L135.13940565468187,285.8440573781138L134.0375342000284,285.83040802075743L133.87681843356864,285.82451496488306L133.7997753942683,285.8263782104905L133.4890900220606,285.8201385042703L131.34856746952534,285.79318643990314L130.97106524321146,285.7900665867928L130.71177078473323,285.78300358600245L127.31893052757177,285.7522383678338L127.25285030544954,285.7557048712895L127.24778054414554,285.7572214665513L126.42023950670942,285.7559215277554L126.19855661072425,285.75847807405376L126.18872040716926,285.7603846509544Z" style="stroke: rgb(68, 68, 68); stroke-opacity: 1; stroke-width: 1px; opacity: 1;"/><path class="choroplethlocation" fill="rgb(225, 226, 236)" d="M90.8849825895493,239.9471616444282L84.46436822039311,237.31482891413043L79.30989423839296,233.01034157944127L79.72734791703283,224.93278188980594L85.52442497711353,224.86847825070413L85.0529371758593,220.87679952158965L85.06545991959308,220.87688618417565L85.50947568096116,220.8784027794377L86.25351731641129,220.88091599444283L88.50982108436305,220.87757948486706L89.90803525317622,220.8850324672967L92.253211503471,220.90318827914507L95.88654043786472,220.9163176609834L97.27708496778239,220.92177740392572L98.52350961653394,220.93841662051273L98.52701945128283,220.9383732892195L97.92038134655404,236.0981728638037L97.83861519629498,237.66490243185194L92.49781665355648,237.5816196863318Z" style="stroke: rgb(68, 68, 68); stroke-opacity: 1; stroke-width: 1px; opacity: 1;"/><path class="choroplethlocation" fill="rgb(225, 226, 236)" d="M155.34630426672936,246.36482948564617L155.47534485786412,245.43597988471993L155.5042034991319,245.24081574017032L155.32052214727844,245.22400319841063L155.38218257749494,244.4345503676925L156.3211283697352,240.51133508182556L158.0644329575527,240.5849116176705L159.63376240319332,240.70888244750108L160.53591992751117,240.7698062457332L161.8874229622602,240.69293653160548L163.0317590842444,243.12434205535806L167.3001081204094,240.38151452741363L170.08384038912902,240.7303314376329L173.45293509762007,241.10614374351235L177.5824506703881,242.90083924505893L177.7640087888749,242.86782079964428L177.83117229332632,242.92202824743117L178.01641357173492,243.12538200639506L179.47238835437759,243.68769219818523L180.37762240051177,243.79147064538688L180.74615504913464,244.04292213979693L180.98725036447127,251.75125588011883L177.8299156858242,255.22989209780621L173.6777811780083,255.3796450470877L166.24312788550586,252.11640868787254L154.9117347272782,249.13751227460216Z" style="stroke: rgb(68, 68, 68); stroke-opacity: 1; stroke-width: 1px; opacity: 1;"/><path class="choroplethlocation" fill="rgb(225, 226, 236)" d="M200.924585001553,244.64197726821658L194.11511560726677,243.5949198994549L189.48620688042746,240.86704166766276L185.22240763004834,238.30646555889598L181.8123648494888,232.0453103486975L184.01584777103605,228.77392770636152L187.9898906638207,228.12278836352175L194.63123464051128,229.07586015734387L195.289696971901,227.60840258200506L199.99504209993628,228.45336279930552L200.45526376495937,228.76105831228278L201.29528421483536,229.47156152679963L201.6356948541749,229.84607389388316L204.97640756562242,238.9384958014366L206.92011938446717,244.35334752424546Z" style="stroke: rgb(68, 68, 68); stroke-opacity: 1; stroke-width: 1px; opacity: 1;"/></g><g class="trace choropleth"><path class="choroplethlocation" fill="rgb(196, 198, 217)" d="M74.55623471844564,255.98264332318809L65.81717950689637,253.2855736408576L62.14229586232926,250.56813825072504L62.714442257675245,247.8253107227806L65.42875779469725,247.5877685734863L69.38681144029258,242.67642647760226L72.82046977564409,248.64162895527966L81.20165183669667,251.44897677879112L82.20880108442528,252.03243264166076L76.6614422670269,256.92002918887374Z" style="stroke: rgb(68, 68, 68); stroke-opacity: 1; stroke-width: 1px; opacity: 1;"/><path class="choroplethlocation" fill="rgb(196, 198, 217)" d="M87.02594094890331,275.26905527389636L89.71278444603972,275.27065853174486L93.12846029471537,270.3539866867982L105.19024573103627,269.4883574426433L104.41305565629216,286.18754453927L100.54387449303927,286.16839210767785L100.54058131475666,286.1692154022485L86.8160441646669,286.20305714223355L86.80252480119067,280.97916642853534Z" style="stroke: rgb(68, 68, 68); stroke-opacity: 1; stroke-width: 1px; opacity: 1;"/><path class="choroplethlocation" fill="rgb(196, 198, 217)" d="M154.9117347272782,249.13751227460216L166.24312788550586,252.11640868787254L173.6777811780083,255.3796450470877L170.75044900363963,263.22607561882205L165.93066593027729,267.9272609427103L158.9942358469291,266.25298310495214L155.28096067659163,267.22590063105736L154.42590426797653,266.90949552814845L154.3556642417077,267.3938093921877L151.43903489675805,266.83934216446596L151.46971345234007,266.7289340294051L151.67172394121468,262.25068820900424L149.53289130911463,257.43723150444816L154.08653357967393,254.59552196543268Z" style="stroke: rgb(68, 68, 68); stroke-opacity: 1; stroke-width: 1px; opacity: 1;"/></g><g class="trace choropleth"><path class="choroplethlocation" fill="rgb(167, 170, 198)" d="M76.82748778254978,286.22918591203006L71.54674641217929,286.24300859455957L71.54072336242564,286.2440052143029L68.97759070735978,286.23633557540734L69.59913477694812,268.78933702082304L69.65949526836803,267.2428431666965L74.15186709035055,267.30298700165145L84.43303969541336,267.45906631973935L87.02594094890331,275.26905527389636L86.80252480119067,280.97916642853534L86.8160441646669,286.20305714223355L85.23718183452434,286.2071736150872Z" style="stroke: rgb(68, 68, 68); stroke-opacity: 1; stroke-width: 1px; opacity: 1;"/></g><g class="trace choropleth"><path class="choroplethlocation" fill="rgb(139, 144, 179)" d="M55.8122438959513,260.8382613760232L60.15893591021205,250.35052849630029L62.14229586232926,250.56813825072504L65.81717950689637,253.2855736408576L74.55623471844564,255.98264332318809L74.15186709035055,267.30298700165145L69.65949526836803,267.2428431666965L69.59913477694812,268.78933702082304L57.0232235468693,268.5331190841616L57.209938089245725,262.31390856577605Z" style="stroke: rgb(68, 68, 68); stroke-opacity: 1; stroke-width: 1px; opacity: 1;"/></g><g class="trace choropleth"><path class="choroplethlocation" fill="rgb(111, 118, 161)" d="M36.08658262612627,263.0888020819805L31.884530468549826,269.1294443411098L31.56101903355642,269.2634680309618L30.988872638210978,269.35151721873376L30.355369131701508,269.53827509240386L30.183040578665327,268.95369261591145L28.366549436641662,269.67580861700435L28.014569342019655,269.7591346938184L27.034718809002612,269.7591346938184L26.510626817810163,269.4407796827152L26.47058870289797,269.3063660112248L26.91529776495716,267.7178841339926L27.635290532683854,267.07068793883354L29.570596080648613,265.3311098422307L31.013658137918327,265.5225041642725L31.111846848298143,265.59902722805487L31.300597961455082,265.79523132364125L31.67888015104677,266.15639765242076L32.17233691795056,266.0972071059166L32.76450237075181,265.68269995521405L32.72281766669832,265.1677508668856L32.51621406074506,262.2499949083135L32.811126842229754,262.0160492563539L32.99823136624539,261.9376629469641L33.48822162969313,261.90529447094787ZM50.15066378969044,269.7123802284609L47.130299328833274,268.2928470633958L39.034410502175575,269.05885766449546L32.437394438423894,268.8112626551797L37.11678412183477,262.8887848325928L38.146985617543805,262.6888109144984L44.71951950064056,257.8163369886104L49.3585677500879,257.9182521902046L55.8122438959513,260.8382613760232L57.209938089245725,262.31390856577605L57.0232235468693,268.5331190841616Z" style="stroke: rgb(68, 68, 68); stroke-opacity: 1; stroke-width: 1px; opacity: 1;"/></g><g class="trace choropleth"><path class="choroplethlocation" fill="rgb(82, 93, 143)" d="M49.71691754480938,284.05347834942063L50.15066378969044,269.7123802284609L57.0232235468693,268.5331190841616L69.59913477694812,268.78933702082304L68.97759070735978,286.23633557540734L62.28762901970521,286.23910877817184L56.17531680163097,286.24166532447043L55.420745661935285,286.22459279495183L49.652093930189835,286.2012805592128L49.67562282239507,285.4906473508163L49.67375957678749,285.47335816483155Z" style="stroke: rgb(68, 68, 68); stroke-opacity: 1; stroke-width: 1px; opacity: 1;"/></g><g class="trace choropleth"><path class="choroplethlocation" fill="rgb(52, 70, 125)" d="M49.71691754480938,284.05347834942063L49.67375957678749,285.47335816483155L49.67562282239507,285.4906473508163L49.652093930189835,286.2012805592128L46.183770560283136,286.22424614460624L43.11318513061241,286.2446118524076L40.8035838720302,286.24894498172716L39.292318359271576,286.24599845378975L38.8574021694746,286.24188198093634L20.836133986177998,286.1839047106416L20.811001836124802,285.5748400534942L21.429816034241014,284.26003862408083L25.838211810011614,283.32611926185086L26.672989173411793,280.94133820957586L27.30285285129284,280.4149496598443L28.050924297010027,280.1436524331507L29.49823282101312,280.84561938290835L29.87954820112776,280.94094822793704L30.31212450109288,280.87179148399787L30.623676499164077,280.7252017191197L31.40485305288189,280.0309910708445L31.438651461574153,279.90403038178306L31.05984929646428,276.85424397284555L31.020504482243183,276.5374055570046L30.884097571265414,276.2270235038495L29.994202802921677,275.1652334954015L29.68455738175146,274.9786922781973L29.190580639328914,274.913695338405L28.154919400677784,275.0653115332941L27.647943270297162,274.9049857484729L27.354547084074227,274.61951918890486L27.019639518970706,274.09906702634066L26.920974164366072,273.77802547505985L27.1401871766393,273.1662742777339L27.352467182000908,272.97033016990645L27.59161258914321,272.8857908168832L29.259910708440913,272.82950346702296L30.481939839123754,269.9675582140858L30.355369131701508,269.53827509240386L30.988872638210978,269.35151721873376L31.56101903355642,269.2634680309618L31.884530468549826,269.1294443411098L36.08658262612627,263.0888020819805L37.11678412183477,262.8887848325928L32.437394438423894,268.8112626551797L39.034410502175575,269.05885766449546L47.130299328833274,268.2928470633958L50.15066378969044,269.7123802284609Z" style="stroke: rgb(68, 68, 68); stroke-opacity: 1; stroke-width: 1px; opacity: 1;"/></g></g></g><g class="layer frontplot"><g class="scatterlayer"/></g></g></g><g class="funnelarealayer"/><g class="pielayer"/><g class="iciclelayer"/><g class="treemaplayer"/><g class="sunburstlayer"/><g class="glimages"/><defs id="topdefs-83ff9b"><g class="clips"/><clipPath id="legend83ff9b"><rect width="275" height="181" x="0" y="0"/></clipPath></defs><g class="layer-above"><g class="imagelayer"/><g class="shapelayer"/></g><g class="infolayer"><g class="legend" pointer-events="all" transform="translate(425,0)"><rect class="bg" shape-rendering="crispEdges" width="275" height="181" x="0" y="0" style="stroke: rgb(68, 68, 68); stroke-opacity: 1; fill: rgb(255, 255, 255); fill-opacity: 1; stroke-width: 0px;"/><g class="scrollbox" transform="" clip-path="url(#legend83ff9b)"><text class="legendtitletext" text-anchor="start" x="2" y="18.2" style="font-family: 'Open Sans', verdana, arial, sans-serif; font-size: 14px; fill: rgb(42, 63, 95); fill-opacity: 1; white-space: pre;">Visitors as a percent of county population</text><g class="groups"><g class="traces" transform="translate(0,32.7)" style="opacity: 1;"><text class="legendtext" text-anchor="start" x="40" y="4.680000000000001" style="font-family: 'Open Sans', verdana, arial, sans-serif; font-size: 12px; fill: rgb(42, 63, 95); fill-opacity: 1; white-space: pre;">0.0</text><g class="layers"><g class="legendfill"/><g class="legendlines"/><g class="legendsymbols"><g class="legendpoints"><path class="legend3dandfriends gradient_filled" transform="translate(20,0)" d="M-6,-6V6H6V-6Z" style="stroke-miterlimit: 1; fill: url('#g83ff9b-legendfill-cf21f8');"/></g></g></g><rect class="legendtoggle" x="0" y="-9.5" width="63.875" height="19" style="fill: rgb(0, 0, 0); fill-opacity: 0;"/></g><g class="traces" transform="translate(0,51.7)" style="opacity: 1;"><text class="legendtext" text-anchor="start" x="40" y="4.680000000000001" style="font-family: 'Open Sans', verdana, arial, sans-serif; font-size: 12px; fill: rgb(42, 63, 95); fill-opacity: 1; white-space: pre;">1.0</text><g class="layers"><g class="legendfill"/><g class="legendlines"/><g class="legendsymbols"><g class="legendpoints"><path class="legend3dandfriends gradient_filled" transform="translate(20,0)" d="M-6,-6V6H6V-6Z" style="stroke-miterlimit: 1; fill: url('#g83ff9b-legendfill-d1940d');"/></g></g></g><rect class="legendtoggle" x="0" y="-9.5" width="63.875" height="19" style="fill: rgb(0, 0, 0); fill-opacity: 0;"/></g><g class="traces" transform="translate(0,70.7)" style="opacity: 1;"><text class="legendtext" text-anchor="start" x="40" y="4.680000000000001" style="font-family: 'Open Sans', verdana, arial, sans-serif; font-size: 12px; fill: rgb(42, 63, 95); fill-opacity: 1; white-space: pre;">2.0</text><g class="layers"><g class="legendfill"/><g class="legendlines"/><g class="legendsymbols"><g class="legendpoints"><path class="legend3dandfriends gradient_filled" transform="translate(20,0)" d="M-6,-6V6H6V-6Z" style="stroke-miterlimit: 1; fill: url('#g83ff9b-legendfill-ab9f70');"/></g></g></g><rect class="legendtoggle" x="0" y="-9.5" width="63.875" height="19" style="fill: rgb(0, 0, 0); fill-opacity: 0;"/></g><g class="traces" transform="translate(0,89.7)" style="opacity: 1;"><text class="legendtext" text-anchor="start" x="40" y="4.680000000000001" style="font-family: 'Open Sans', verdana, arial, sans-serif; font-size: 12px; fill: rgb(42, 63, 95); fill-opacity: 1; white-space: pre;">3.0</text><g class="layers"><g class="legendfill"/><g class="legendlines"/><g class="legendsymbols"><g class="legendpoints"><path class="legend3dandfriends gradient_filled" transform="translate(20,0)" d="M-6,-6V6H6V-6Z" style="stroke-miterlimit: 1; fill: url('#g83ff9b-legendfill-ece675');"/></g></g></g><rect class="legendtoggle" x="0" y="-9.5" width="63.875" height="19" style="fill: rgb(0, 0, 0); fill-opacity: 0;"/></g><g class="traces" transform="translate(0,108.7)" style="opacity: 1;"><text class="legendtext" text-anchor="start" x="40" y="4.680000000000001" style="font-family: 'Open Sans', verdana, arial, sans-serif; font-size: 12px; fill: rgb(42, 63, 95); fill-opacity: 1; white-space: pre;">6.0</text><g class="layers"><g class="legendfill"/><g class="legendlines"/><g class="legendsymbols"><g class="legendpoints"><path class="legend3dandfriends gradient_filled" transform="translate(20,0)" d="M-6,-6V6H6V-6Z" style="stroke-miterlimit: 1; fill: url('#g83ff9b-legendfill-6c06e4');"/></g></g></g><rect class="legendtoggle" x="0" y="-9.5" width="63.875" height="19" style="fill: rgb(0, 0, 0); fill-opacity: 0;"/></g><g class="traces" transform="translate(0,127.7)" style="opacity: 1;"><text class="legendtext" text-anchor="start" x="40" y="4.680000000000001" style="font-family: 'Open Sans', verdana, arial, sans-serif; font-size: 12px; fill: rgb(42, 63, 95); fill-opacity: 1; white-space: pre;">7.0</text><g class="layers"><g class="legendfill"/><g class="legendlines"/><g class="legendsymbols"><g class="legendpoints"><path class="legend3dandfriends gradient_filled" transform="translate(20,0)" d="M-6,-6V6H6V-6Z" style="stroke-miterlimit: 1; fill: url('#g83ff9b-legendfill-e12876');"/></g></g></g><rect class="legendtoggle" x="0" y="-9.5" width="63.875" height="19" style="fill: rgb(0, 0, 0); fill-opacity: 0;"/></g><g class="traces" transform="translate(0,146.7)" style="opacity: 1;"><text class="legendtext" text-anchor="start" x="40" y="4.680000000000001" style="font-family: 'Open Sans', verdana, arial, sans-serif; font-size: 12px; fill: rgb(42, 63, 95); fill-opacity: 1; white-space: pre;">9.0</text><g class="layers"><g class="legendfill"/><g class="legendlines"/><g class="legendsymbols"><g class="legendpoints"><path class="legend3dandfriends gradient_filled" transform="translate(20,0)" d="M-6,-6V6H6V-6Z" style="stroke-miterlimit: 1; fill: url('#g83ff9b-legendfill-c95011');"/></g></g></g><rect class="legendtoggle" x="0" y="-9.5" width="63.875" height="19" style="fill: rgb(0, 0, 0); fill-opacity: 0;"/></g><g class="traces" transform="translate(0,165.7)" style="opacity: 1;"><text class="legendtext" text-anchor="start" x="40" y="4.680000000000001" style="font-family: 'Open Sans', verdana, arial, sans-serif; font-size: 12px; fill: rgb(42, 63, 95); fill-opacity: 1; white-space: pre;">21.0</text><g class="layers"><g class="legendfill"/><g class="legendlines"/><g class="legendsymbols"><g class="legendpoints"><path class="legend3dandfriends gradient_filled" transform="translate(20,0)" d="M-6,-6V6H6V-6Z" style="stroke-miterlimit: 1; fill: url('#g83ff9b-legendfill-59bd73');"/></g></g></g><rect class="legendtoggle" x="0" y="-9.5" width="63.875" height="19" style="fill: rgb(0, 0, 0); fill-opacity: 0;"/></g></g></g><rect class="scrollbar" rx="20" ry="3" width="0" height="0" x="0" y="0" style="fill: rgb(128, 139, 164); fill-opacity: 1;"/></g><g class="g-gtitle"/></g></svg>