<svg class="main-svg" xmlns="http://www.w3.org/2000/svg" xmlns:xlink="http://www.w3.org/1999/xlink" width="700" height="500" style="" viewBox="0 0 700 500"><rect x="0" y="0" width="700" height="500" style="fill: rgb(255, 255, 255); fill-opacity: 1;"/><defs id="defs-800f16"><g class="clips"><clipPath id="clip800f16geo"><rect x="0" y="109.00146735891096" width="564" height="281.997065282178"/></clipPath></g><g class="gradients"><linearGradient x1="0" x2="0" y1="1" y2="0" id="g800f16-cbcoloraxis"><stop offset="0%" stop-color="rgb(247, 251, 255)" stop-opacity="1"/><stop offset="12.5%" stop-color="rgb(222, 235, 247)" stop-opacity="1"/><stop offset="25%" stop-color="rgb(198, 219, 239)" stop-opacity="1"/><stop offset="37.5%" stop-color="rgb(158, 202, 225)" stop-opacity="1"/><stop offset="50%" stop-color="rgb(107, 174, 214)" stop-opacity="1"/><stop offset="62.5%" stop-color="rgb(66, 146, 198)" stop-opacity="1"/><stop offset="75%" stop-color="rgb(33, 113, 181)" stop-opacity="1"/><stop offset="87.5%" stop-color="rgb(8, 81, 156)" stop-opacity="1"/><stop offset="100%" stop-color="rgb(8, 48, 107)" stop-opacity="1"/></linearGradient></g><g class="patterns"/></defs><g class="bglayer"/><g class="layer-below"><g class="imagelayer"/><g class="shapelayer"/></g><g class="cartesianlayer"/><g class="polarlayer"/><g class="smithlayer"/><g class="ternarylayer"/><g class="geolayer"><g class="geo geo" clip-path="url(#clip800f16geo)"><g class="layer bg"><rect x="0" y="109.00146735891096" width="564" height="281.997065282178" style="pointer-events: all; fill: rgb(255, 255, 255); fill-opacity: 1;"/></g><g class="layer backplot"><g class="choroplethlayer"><g class="trace choropleth"><path class="choroplethlocation" fill="rgb(247, 251, 255)" d="M382.0294118686175,245.3455713236208L379.18858610094173,240.57255269116467L378.8998325978098,239.8148897545916L378.0084299628091,237.44496603637162L377.99623984130506,237.4007768459187L377.9137807020909,237.2103061974144L372.09874110643335,230.49982012837336L376.101730861752,227.37610149290367L383.7736541580892,229.67347054563197L384.61160779880163,225.72920435640617L393.8484965496024,226.57905508685508L397.69313193807244,224.2348009514185L401.36224129815105,229.15773463583582L392.43649367747616,236.04204714901925L394.5126823525259,237.95302451387397L386.50904709602435,240.49044519007066Z" style="stroke: rgb(68, 68, 68); stroke-opacity: 1; stroke-width: 1px; opacity: 1;"/><path class="choroplethlocation" fill="rgb(246, 250, 255)" d="M265.63701822512155,274.5133087339059L254.7023034167294,279.8919654222518L249.94715972205603,277.89829449276976L248.87085404212306,277.4005507334632L248.34204891552244,277.5897320421932L246.5732505639819,276.94506215494766L245.6002092787154,277.2986342849249L242.1559724965782,273.17679084493966L243.258416610121,258.48892516571414L248.90338056825263,257.8022345230911L257.09678319701806,262.4170746077589L260.6935723170188,259.7572252593386L266.36520216594056,261.65290636596Z" style="stroke: rgb(68, 68, 68); stroke-opacity: 1; stroke-width: 1px; opacity: 1;"/><path class="choroplethlocation" fill="rgb(247, 251, 255)" d="M164.64948038817354,219.37463467147745L166.4743064135511,225.82994867787602L168.265316573024,232.45897191571112L163.47330948207127,238.4344757069398L162.7628246599732,243.20743573304208L167.8672622208269,244.15779635954823L165.70439474912033,249.40370965747525L165.33828085951808,250.11249489532474L165.2356611347392,250.88152746445485L153.09705461509398,249.1153663988166L150.7775909671392,249.07193909095758L151.06341415260286,233.03091131840438L158.64719349344728,225.03501210054992L158.3824685952032,219.03126004698925L164.05286771070422,218.97458770326512L164.19106149198885,218.99726836202535L164.53209186234116,219.21194343447814Z" style="stroke: rgb(68, 68, 68); stroke-opacity: 1; stroke-width: 1px; opacity: 1;"/><path class="choroplethlocation" fill="rgb(247, 251, 255)" d="M314.50217518935295,265.4324887021712L323.78641787369037,256.4179524561155L324.4501348257857,253.81735413096885L344.25908227022717,254.0325566606025L333.0242443261468,265.20175548889074L331.4167306591238,271.8072775790174L326.10195489596845,277.9241985009662L315.70395707188476,269.8362873082956Z" style="stroke: rgb(68, 68, 68); stroke-opacity: 1; stroke-width: 1px; opacity: 1;"/><path class="choroplethlocation" fill="rgb(246, 251, 255)" d="M410.0029276159578,246.69586170563252L410.5942071152681,247.16002402444883L410.5795555269218,247.77310508721894L410.846566072948,248.2747754722027L417.7073774384245,258.2124203904391L417.69899672988925,265.3319201997606L416.91888755997,265.2644642870132L412.1923437657488,265.65624775939887L404.97456110179934,268.28527016593716L401.8214220769298,270.9991545721796L400.7196226332745,271.68338374795985L400.707549724477,271.69088536119307L400.2286772109603,271.48529427351514L400.2285013919009,271.5090298466371L398.30861586133136,266.45346998450714L393.1661427771304,266.9674477037015L386.90944570235575,262.90497249969667L390.147270907868,259.96387126137734L388.20183300722255,251.50269620399195L398.25809718471277,246.89371675466327L406.53448640987193,249.39099207879053Z" style="stroke: rgb(68, 68, 68); stroke-opacity: 1; stroke-width: 1px; opacity: 1;"/><path class="choroplethlocation" fill="rgb(247, 251, 255)" d="M356.71029507883196,284.56037171391426L356.92538039575874,288.6668602893119L352.47627907846663,299.40202046442437L350.58475902293617,299.4142105859287L350.5228121074068,299.4155585320568L350.44703409247893,299.4133314906285L350.4315034088314,299.41286263980146L350.0483936767487,299.40477496303356L349.8609119522669,299.39539794649227L349.6539143121073,299.4074708552894L349.1974294255846,299.390064768334L347.6600089572124,299.4051852075072L347.4676629053998,299.40254792160476L342.89683619212474,299.39522212743213L342.5971233009096,299.39826965780776L341.9405563239265,299.40026227382305L340.6893106791375,299.40969789671817L337.93070962526144,289.96469798504313L342.4840130388749,281.82081772488937L347.53506021179317,278.17046239789397Z" style="stroke: rgb(68, 68, 68); stroke-opacity: 1; stroke-width: 1px; opacity: 1;"/><path class="choroplethlocation" fill="rgb(247, 251, 255)" d="M397.69313193807244,224.2348009514185L393.8484965496024,226.57905508685508L384.61160779880163,225.72920435640617L383.7736541580892,229.67347054563197L376.101730861752,227.37610149290367L378.61031721208315,223.37281870581864L377.43748686812364,212.75299583416927L382.73233647112875,209.95788302213487L382.6303614162374,205.38682188344683L384.62520447278723,205.4041693640488L398.658671610105,205.52636361085843L398.67215107138406,205.5266566426253L403.47634828384156,215.4672318785315Z" style="stroke: rgb(68, 68, 68); stroke-opacity: 1; stroke-width: 1px; opacity: 1;"/><path class="choroplethlocation" fill="rgb(247, 251, 255)" d="M287.4640168420529,249.47772948180182L281.61891218710736,255.63755025442924L281.608890500679,260.00050023224367L272.314508917206,259.904444419044L268.5932985089663,257.4404575036401L271.75411496612924,242.7531778879479L279.86318305237285,242.3628009680442Z" style="stroke: rgb(68, 68, 68); stroke-opacity: 1; stroke-width: 1px; opacity: 1;"/><path class="choroplethlocation" fill="rgb(247, 251, 255)" d="M153.0198114413316,250.8182326027977L130.17095244676332,250.3468030961617L127.95475319347423,252.4258634825269L122.09710677890519,252.32500194834984L122.92357357435407,236.40335531764413L125.1049606537307,233.20391727359993L132.3284867403123,233.3165586848072L132.43907692915187,231.1975287654327L151.11387422286785,231.52566573804006L151.06341415260286,233.03091131840438L150.7775909671392,249.07193909095758L153.09705461509398,249.1153663988166L153.0313568929488,250.69363549549962Z" style="stroke: rgb(68, 68, 68); stroke-opacity: 1; stroke-width: 1px; opacity: 1;"/><path class="choroplethlocation" fill="rgb(247, 251, 255)" d="M516.1057451891355,210.2902396521863L518.0985370233169,212.39590732298848L511.7042322307923,218.5419556025704L519.0858196524558,224.5569600759809L517.497177231224,226.71074356291365L513.5975690832782,232.448833016575L510.4619533580703,233.88480588723723L510.43997597555165,233.885391950771L507.70727892987315,233.96116996569936L507.50215669302185,233.84395725892728L507.0726893354102,233.07275625472175L507.1563206016923,232.531174943083L506.48814956673914,231.31808203434775L502.7781915783493,230.76155610259502L502.14518435542806,230.88468805105867L500.13475200887785,226.4131991067734L495.2057232637091,225.26457318676285L497.58519981753057,216.84295741791266L504.1377417641965,216.60249554997017Z" style="stroke: rgb(68, 68, 68); stroke-opacity: 1; stroke-width: 1px; opacity: 1;"/><path class="choroplethlocation" fill="rgb(241, 247, 253)" d="M205.33629655646112,221.21335040260738L211.73886484481227,215.19740822754284L212.08739682839854,215.01965515772326L212.56005706845642,215.38629650450548L212.59012212774297,215.85878092550274L213.279039811794,215.66268406707377L213.41805408202632,215.3034857271714L213.31994704645734,213.99867387538734L215.0683503870202,213.38781985404557L222.7834079594492,218.35822468470587L227.21217287211576,217.6566480283227L222.26157698890148,232.54904988086537L218.95565120075466,237.41202926576898L217.12771903864802,237.5159969366755L215.90753476115339,237.4335964038146L213.7849884605747,237.2659236267773L211.42713765115246,237.16641003872837L213.34338958781194,229.7144949930016L211.73599313349695,221.66977668277696ZM213.2192027249875,223.14126500359043L213.78317166362004,223.04474033956376L213.96133497791385,222.9431169227928L213.78651222576357,222.81482761523102L213.6776802275258,222.9592922763277L213.51745045736817,222.8888474395576Z" style="stroke: rgb(68, 68, 68); stroke-opacity: 1; stroke-width: 1px; opacity: 1;"/><path class="choroplethlocation" fill="rgb(247, 251, 255)" d="M127.55921891447224,264.2212711967445L133.90376691297232,268.6788118289237L142.18777496407273,269.8057533981819L142.37385013607286,274.1326018623108L142.33329453952973,274.7242329997416L142.90505812316212,274.84976780869465L142.68616339326584,275.42065229702666L142.3093831473477,275.41772197935734L142.27169926212065,276.3583539512015L125.9579175209096,277.52913307279186L121.33815450255693,284.17902017243205L117.70415034815662,284.1768517373566L114.1972047678968,273.61370120943184L123.91062177807927,270.0189633117998Z" style="stroke: rgb(68, 68, 68); stroke-opacity: 1; stroke-width: 1px; opacity: 1;"/><path class="choroplethlocation" fill="rgb(247, 251, 255)" d="M428.8839606672386,205.07603239144055L433.2094025788873,208.73301023636895L433.88355146188565,215.86534483708192L425.3443713481428,219.3700633759131L417.4381398509697,219.89775498180052L413.5934458561468,219.862649776122L409.3441922038998,214.53539085969533L403.47634828384156,215.4672318785315L398.67215107138406,205.5266566426253L402.009372652239,205.60554079428266L416.0722601789572,205.93772160527442L416.8693065850056,205.1171740515183L416.9689959921148,204.86915196398877L417.27796868716575,204.8701482719962L417.27873056975903,204.8720822816581Z" style="stroke: rgb(68, 68, 68); stroke-opacity: 1; stroke-width: 1px; opacity: 1;"/><path class="choroplethlocation" fill="rgb(247, 251, 255)" d="M291.64095025422057,210.80837842247092L293.1220500169898,203.6366017459295L306.9880788026841,203.99193206650807L307.0193745953921,203.99515541594474L309.5322978158738,204.03659010778802L311.71638078750715,203.95688546718338L313.76291464774346,203.85057354214132L321.99288764102084,203.42309880054472L323.14749140907685,203.36314450103055L323.1477844408442,203.36314450103055L322.6441214398456,208.9435242577315L313.62284546315124,210.71290867280504L310.30490537256054,216.4579722825206L298.07651391952794,209.46500359015909Z" style="stroke: rgb(68, 68, 68); stroke-opacity: 1; stroke-width: 1px; opacity: 1;"/><path class="choroplethlocation" fill="rgb(247, 251, 255)" d="M440.33745891580224,239.63221375108742L442.8043175425231,235.09362053217546L446.818852749459,229.47913187780387L462.5006821821095,243.29815836808393L461.6314327486897,244.52812990659413L462.5315091239901,247.03853305387975L461.3373460673987,249.13728517498294L458.7301838306734,252.08758761078343L458.6559881872865,252.14771772935728L457.49194879633535,253.09069395533697L456.79845981672,253.37681017256682L450.6786671834557,253.28087157207437L450.6725721227033,253.2785859242922L450.6781983326282,253.28204369914192L446.88777382104047,254.14824560218585L442.4477564885233,256.0942695663657L441.8278184824066,256.49537144893884L441.579210331344,256.7850040473718L438.33868923357574,246.18475569775364Z" style="stroke: rgb(68, 68, 68); stroke-opacity: 1; stroke-width: 1px; opacity: 1;"/><path class="choroplethlocation" fill="rgb(245, 250, 255)" d="M287.94423730169615,267.9717261753226L285.7974279708167,281.7387102237958L271.47257004446396,277.43594897090816L265.40851205326925,279.1371741969947L265.63701822512155,274.5133087339059L266.36520216594056,261.65290636596L268.5932985089663,257.4404575036401L272.314508917206,259.904444419044L281.608890500679,260.00050023224367Z" style="stroke: rgb(68, 68, 68); stroke-opacity: 1; stroke-width: 1px; opacity: 1;"/><path class="choroplethlocation" fill="rgb(247, 251, 255)" d="M100.83864839617064,258.091632696111L89.01891904529825,254.44379744231128L84.04857282099161,250.76841720241964L84.82241111109985,247.0586936394443L88.49357169354687,246.73741361018347L93.84691043722978,240.09473509200916L98.4909950922376,248.1627787308821L109.82669457049579,251.95976715404868L111.18888204224385,252.7489017023904L103.68597946907192,259.3594639389089Z" style="stroke: rgb(68, 68, 68); stroke-opacity: 1; stroke-width: 1px; opacity: 1;"/><path class="choroplethlocation" fill="rgb(246, 251, 255)" d="M358.05671744152096,245.44584679426407L352.12176924683524,250.33678140973234L344.25908227022717,254.0325566606025L324.4501348257857,253.81735413096885L324.8180655123434,252.5837489985488L324.0798598850938,252.82286292036315L323.3233690755885,252.50826401538734L323.55363343804186,252.18944545296836L326.84988917787905,245.3330295639962L323.8556319770392,241.3023776098794L324.9014037468574,234.17912699394128L333.46666368785645,231.9601146356904L344.7460424605103,230.9209067774509L355.7069543088659,240.37874148051742Z" style="stroke: rgb(68, 68, 68); stroke-opacity: 1; stroke-width: 1px; opacity: 1;"/><path class="choroplethlocation" fill="rgb(8, 48, 107)" d="M230.0414531881744,237.46260654874095L226.27640522760393,236.99082540398422L220.50338638732325,240.70054896695956L218.95565120075466,237.41202926576898L222.26157698890148,232.54904988086537L227.21217287211576,217.6566480283227L232.3958462227481,219.57594749535838L236.49764628987467,216.3160276946196L238.33202515085387,219.70441262198028L245.90449346549556,225.7159593205406L250.516637657907,234.1842843530394L244.46242553408132,241.94294505238759L243.96397849853383,241.60285238368897L242.73963316994946,241.46249016732963L240.7704010898284,240.70195551944107L240.51985892910312,240.42691590300046L240.42901908135588,240.35359935491488L240.1834584606687,240.39825739619528L234.59821437663712,237.97089945165726Z" style="stroke: rgb(68, 68, 68); stroke-opacity: 1; stroke-width: 1px; opacity: 1;"/><path class="choroplethlocation" fill="rgb(247, 251, 255)" d="M163.06892564370804,273.8742064502321L164.97509728758553,274.4137951458565L164.42601436271224,275.70659269519683L162.07074223283945,275.6953402753461L151.82037381293557,276.26599033826506L149.35691435471185,273.881121999932L149.27603758703935,267.6925841141456L152.35826292431116,262.9905963819933L153.0198114413316,250.8182326027977L153.0313568929488,250.69363549549962L153.09705461509398,249.1153663988166L165.2356611347392,250.88152746445485L161.4819242003707,256.6509713171781L161.42044613566964,262.24330676996897L165.00756520736076,268.15164768021714L161.0397978704276,272.6296419297287Z" style="stroke: rgb(68, 68, 68); stroke-opacity: 1; stroke-width: 1px; opacity: 1;"/><path class="choroplethlocation" fill="rgb(246, 251, 255)" d="M287.4640168420529,249.47772948180182L279.86318305237285,242.3628009680442L277.23427785853966,235.0391166235263L292.0201333606266,232.36912837597038L301.5618923617422,239.19846812967808L301.9883707953313,247.00653398493114L299.3646815669507,249.97025727565688Z" style="stroke: rgb(68, 68, 68); stroke-opacity: 1; stroke-width: 1px; opacity: 1;"/><path class="choroplethlocation" fill="rgb(243, 248, 254)" d="M213.2192027249875,223.14126500359043L213.51745045736817,222.8888474395576L213.6776802275258,222.9592922763277L213.78651222576357,222.81482761523102L213.96133497791385,222.9431169227928L213.78317166362004,223.04474033956376ZM210.15719657963325,242.47262927428937L190.8002213325047,240.48657717074775L188.9091115214473,229.65711937303695L192.03077893454866,220.46436120633507L205.33629655646112,221.21335040260738L211.73599313349695,221.66977668277696L213.34338958781194,229.7144949930016L211.42713765115246,237.16641003872837Z" style="stroke: rgb(68, 68, 68); stroke-opacity: 1; stroke-width: 1px; opacity: 1;"/><path class="choroplethlocation" fill="rgb(247, 251, 255)" d="M76.6091995348892,227.6175010625002L95.8617968666378,228.08523836887343L95.33773885466155,238.55432569961386L93.84691043722978,240.09473509200916L88.49357169354687,246.73741361018347L84.82241111109985,247.0586936394443L81.06363403033964,243.21030744435802L64.59677249408472,245.62576829915906L64.65625794277102,243.14484414762637L62.71955238878027,241.56809881613117L61.95034400058992,240.0450369043383L63.48366202422599,240.0231767345249L64.45805125561975,238.62518078085714L64.636917846154,238.08524044711294L64.80189473093529,237.0496075764304L68.33023163018126,233.71449582429796L69.6370947043342,233.07896852818067L70.10219472480446,232.62652748004166L70.24255694116403,231.6357284696992L70.07892800250997,230.96990168888215L69.34007770537355,230.04849260094807L68.68227999497046,229.53351857374628L68.0244822845666,229.21610656380835Z" style="stroke: rgb(68, 68, 68); stroke-opacity: 1; stroke-width: 1px; opacity: 1;"/><path class="choroplethlocation" fill="rgb(247, 251, 255)" d="M67.24302516851864,296.0579419402238L67.82967476591176,276.6613487982063L77.12493544468603,275.0663768908089L94.13408156882147,275.4129162583795L93.29343203585304,299.010295598393L84.24513853024828,299.0140464050096L75.9781263216299,299.01750417985977L74.9575552837681,298.9944132766259L67.15535006385335,298.96288305850385L67.18717331374248,298.0017388629749L67.18465324054662,297.97835492797367Z" style="stroke: rgb(68, 68, 68); stroke-opacity: 1; stroke-width: 1px; opacity: 1;"/><path class="choroplethlocation" fill="rgb(247, 251, 255)" d="M332.28093994615256,216.218272297172L336.765556713596,207.33196675232512L342.67190500782897,206.01455453456265L355.0557205100419,209.3314397107929L359.3197429633409,216.9178563375399L356.8756822080878,218.3480271792164L351.18641184679643,222.68079488503736L346.45734797937934,223.6589349230485L344.7460424605103,230.9209067774509L333.46666368785645,231.9601146356904L332.33145862277115,231.5992167115396L334.50493384444144,228.58380261712728L332.17544851005755,222.22923293219856Z" style="stroke: rgb(68, 68, 68); stroke-opacity: 1; stroke-width: 1px; opacity: 1;"/><path class="choroplethlocation" fill="rgb(247, 251, 255)" d="M262.05200898215094,299.205864999642L261.9631617504178,296.78214064901385L262.0867625497083,291.2448365620521L265.40851205326925,279.1371741969947L271.47257004446396,277.43594897090816L285.7974279708167,281.7387102237958L286.1181805428986,282.4810769021351L286.98121770285945,283.6056742172573L287.3705983147547,284.18904185886095L288.06057091316785,285.3665607110911L288.17497051497696,285.5965906481306L288.70770226725506,299.36808738581385L262.4907947499513,299.2087367109575Z" style="stroke: rgb(68, 68, 68); stroke-opacity: 1; stroke-width: 1px; opacity: 1;"/><path class="choroplethlocation" fill="rgb(246, 251, 255)" d="M122.92357357435407,236.40335531764413L122.09710677890519,252.32500194834984L110.13244391610897,251.95806756980073L109.82669457049579,251.95976715404868L98.4909950922376,248.1627787308821L93.84691043722978,240.09473509200916L95.33773885466155,238.55432569961386L95.8617968666378,228.08523836887343L107.18641974410627,228.26357750222678L107.26805839437282,227.0211814167983L114.2395771613946,232.84307795580253Z" style="stroke: rgb(68, 68, 68); stroke-opacity: 1; stroke-width: 1px; opacity: 1;"/><path class="choroplethlocation" fill="rgb(246, 251, 255)" d="M232.18972767788978,283.2338755113774L231.72058381903554,299.1697048796027L231.7168330124182,299.1697048796027L231.12514326863334,299.16407866967756L230.9301013245655,299.16032786306096L230.2061370411898,299.1584524597524L224.0540523072096,299.0152185320776L223.87143491005872,299.00666200448313L223.73212760806058,299.0029111978665L223.62669477831923,299.00859601414504L222.12666516340676,298.9729633512861L221.47220801514646,298.9705604907972L209.77525897461766,298.74422275402094L209.42807493715858,298.73695556620123L208.9961461127047,298.72646502894486L210.02029213812375,273.2983404218621L215.0425635915298,271.9824519692879L224.42421003519505,274.24694285776695L227.6096411607797,280.2802325134335Z" style="stroke: rgb(68, 68, 68); stroke-opacity: 1; stroke-width: 1px; opacity: 1;"/><path class="choroplethlocation" fill="rgb(247, 251, 255)" d="M417.43509232059284,235.3577593668856L413.6113794002822,230.43506010788178L417.4381398509697,219.89775498180052L425.3443713481428,219.3700633759131L433.88355146188565,215.86534483708192L440.10783922323645,216.94938655566148L441.5907557829612,223.13804165415468L437.6991180990754,222.81582392323844L429.1776371040565,229.8428429069172L424.8406497407913,229.41507513355327L417.01148559831984,232.78634700572502L417.0251994850119,233.25894863942904L417.90822141147817,235.06789234303915Z" style="stroke: rgb(68, 68, 68); stroke-opacity: 1; stroke-width: 1px; opacity: 1;"/><path class="choroplethlocation" fill="rgb(247, 251, 255)" d="M480.2842526598863,234.44244533970414L481.331255163126,235.48669334433498L479.82641982723555,237.7462026927751L478.86949528915045,236.76612864510253L478.1040963139304,236.22993911797448L477.81692518233945,236.2240784826363L475.0975903852328,237.37868225069224L473.2339083475597,238.65928967852778L470.94239993017084,239.82842782222406L469.52647043236647,241.5580185233489L466.50900511558643,244.00893622194826L465.1937613328997,243.06437762442738L463.9275710679964,242.85286729505742L462.5007407884631,243.2980997617301L462.5006821821095,243.29815836808393L446.818852749459,229.47913187780387L451.7284827916571,225.88058456720137L460.26912806423366,220.45357763731226L473.9840110645467,216.02791886137447L478.25787938521466,215.96181089475522L477.1954634110354,231.5004650060846Z" style="stroke: rgb(68, 68, 68); stroke-opacity: 1; stroke-width: 1px; opacity: 1;"/><path class="choroplethlocation" fill="rgb(247, 251, 255)" d="M303.74662000326236,267.52889656913885L310.8784857531483,274.8674669274169L306.6051448896614,279.97448316781947L297.7633801733873,281.7350766298855L295.9644581562066,286.06936810089474L288.17497051497696,285.5965906481306L288.06057091316785,285.3665607110911L287.3705983147547,284.18904185886095L286.98121770285945,283.6056742172573L286.1181805428986,282.4810769021351L285.7974279708167,281.7387102237958L287.94423730169615,267.9717261753226Z" style="stroke: rgb(68, 68, 68); stroke-opacity: 1; stroke-width: 1px; opacity: 1;"/><path class="choroplethlocation" fill="rgb(247, 251, 255)" d="M429.7267200289283,230.97470740985955L429.67004768520445,230.97974755625L429.1776371040565,229.8428429069172L437.6991180990754,222.81582392323844L441.5907557829612,223.13804165415468L447.02368195454295,219.84436459386552L451.7284827916571,225.88058456720137L446.818852749459,229.47913187780387L442.8043175425231,235.09362053217546L439.34044763200154,231.981681773736Z" style="stroke: rgb(68, 68, 68); stroke-opacity: 1; stroke-width: 1px; opacity: 1;"/><path class="choroplethlocation" fill="rgb(245, 250, 254)" d="M331.4167306591238,271.8072775790174L338.38197854633313,274.7001457885003L342.4840130388749,281.82081772488937L337.93070962526144,289.96469798504313L340.6893106791375,299.40969789671817L340.5201141369122,299.4109872364925L336.699448746977,299.4571690429607L336.6917713146837,299.4557624904792L328.7582292568315,299.5031164240154L328.4445680535098,299.50780493228604L326.648341928585,299.52655896536953L326.5721536691833,299.52655896536953L326.4139165150412,299.53241960070864L326.33772825564023,299.53828023604683L325.83957425185935,299.53828023604683L325.53476260789887,299.53828023604683L324.3977993522125,299.5558621420628L323.8058751830146,299.561722777401L323.1728679600934,299.5675834127396L323.07323715933705,299.5675834127396L322.0802111075667,299.5865718712371L321.6706699101053,299.5968865894324L321.4380612935169,299.5968865894324L321.27396350403615,299.60274722477106L318.0118166618695,299.6613535781571L311.5327084759949,299.6263655851858L318.1266851145053,293.5429674973743L316.6539074539169,290.06198453166417L324.9223262150169,279.98708353379743L326.10195489596845,277.9241985009662Z" style="stroke: rgb(68, 68, 68); stroke-opacity: 1; stroke-width: 1px; opacity: 1;"/><path class="choroplethlocation" fill="rgb(247, 251, 255)" d="M457.4264854996039,205.27851734238948L466.4901924761497,205.2825025744196L459.4523899234481,208.25712664687535L455.92018500487825,207.04479562073448L440.10783922323645,216.94938655566148L433.88355146188565,215.86534483708192L433.2094025788873,208.73301023636895L428.8839606672386,205.07603239144055L440.3595535110289,205.02311085433348L441.8830842736496,205.27230506893056L441.90681984677155,205.27447350400553L441.96343358414254,205.27863455509623L454.89058858859437,205.27476653577287L454.9554658217933,205.27746242802868Z" style="stroke: rgb(68, 68, 68); stroke-opacity: 1; stroke-width: 1px; opacity: 1;"/><path class="choroplethlocation" fill="rgb(247, 251, 255)" d="M103.91055901524675,299.00062555008435L96.76826133445789,299.0193209768149L96.76011505133783,299.0206689229426L93.29343203585304,299.010295598393L94.13408156882147,275.4129162583795L94.21572021908725,273.32125550603587L100.291733906373,273.402601124536L114.1972047678968,273.61370120943184L117.70415034815662,284.1768517373566L117.4019759900992,291.8998797738468L117.42026117235486,298.9652859189928L115.2848214740325,298.9708535225641Z" style="stroke: rgb(68, 68, 68); stroke-opacity: 1; stroke-width: 1px; opacity: 1;"/><path class="choroplethlocation" fill="rgb(247, 251, 255)" d="M148.3937775431672,298.9529199784279L142.21549576922428,298.94547697154803L141.2205357077905,298.9443048444805L142.27169926212065,276.3583539512015L142.3093831473477,275.41772197935734L142.68616339326584,275.42065229702666L142.90505812316212,274.84976780869465L142.33329453952973,274.7242329997416L142.37385013607286,274.1326018623108L149.35691435471185,273.881121999932L151.82037381293557,276.26599033826506L162.07074223283945,275.6953402753461L164.59995801956273,281.3584135966744L164.40474025643402,298.32038160633374L152.82799284669932,298.2350507558044L151.79570053816022,298.942898291999L148.6449643737793,298.94764540662345Z" style="stroke: rgb(68, 68, 68); stroke-opacity: 1; stroke-width: 1px; opacity: 1;"/><path class="choroplethlocation" fill="rgb(247, 251, 255)" d="M466.4901924761497,205.2825025744196L474.3817137786236,205.28619477468283L475.31361340381306,205.28619477468283L479.4572584072571,205.2626936269753L475.2668455338111,214.7744461751563L475.53057412404814,215.2667395435983L473.9840110645467,216.02791886137447L460.26912806423366,220.45357763731226L451.7284827916571,225.88058456720137L447.02368195454295,219.84436459386552L441.5907557829612,223.13804165415468L440.10783922323645,216.94938655566148L455.92018500487825,207.04479562073448L459.4523899234481,208.25712664687535Z" style="stroke: rgb(68, 68, 68); stroke-opacity: 1; stroke-width: 1px; opacity: 1;"/><path class="choroplethlocation" fill="rgb(247, 251, 255)" d="M75.4870636866099,264.65894344383014L81.3660428138115,250.4740960957156L84.04857282099161,250.76841720241964L89.01891904529825,254.44379744231128L100.83864839617064,258.091632696111L100.291733906373,273.402601124536L94.21572021908725,273.32125550603587L94.13408156882147,275.4129162583795L77.12493544468603,275.0663768908089L77.3774702214254,266.65478280838806Z" style="stroke: rgb(68, 68, 68); stroke-opacity: 1; stroke-width: 1px; opacity: 1;"/><path class="choroplethlocation" fill="rgb(246, 251, 255)" d="M149.35691435471185,273.881121999932L142.37385013607286,274.1326018623108L142.18777496407273,269.8057533981819L133.90376691297232,268.6788118289237L127.55921891447224,264.2212711967445L127.95475319347423,252.4258634825269L130.17095244676332,250.3468030961617L153.0198114413316,250.8182326027977L152.35826292431116,262.9905963819933L149.27603758703935,267.6925841141456Z" style="stroke: rgb(68, 68, 68); stroke-opacity: 1; stroke-width: 1px; opacity: 1;"/><path class="choroplethlocation" fill="rgb(247, 251, 255)" d="M164.05286771070422,218.97458770326512L158.3824685952032,219.03126004698925L158.64719349344728,225.03501210054992L151.06341415260286,233.03091131840438L151.11387422286785,231.52566573804006L132.43907692915187,231.1975287654327L133.25956587655483,210.6936271825416L133.4984453729557,210.6892317060374L133.5189575966406,210.69210341735334L134.84990788203496,210.71490128882078L134.857819739742,210.71490128882078L135.8254692404966,210.71724554295588L136.99882704163568,210.72638813408412L137.1384273754019,210.71296727915933L139.11938072619878,210.7331864710768L144.1337989282514,210.746372900589L144.42120448525606,210.7491860055511L144.72015549387717,210.7521749295738L160.39747223731842,210.94569310845418L160.09342247595197,214.33935260761928Z" style="stroke: rgb(68, 68, 68); stroke-opacity: 1; stroke-width: 1px; opacity: 1;"/><path class="choroplethlocation" fill="rgb(245, 250, 254)" d="M180.50572232850118,257.1579748803201L180.12038555498913,249.53094405067623L180.694727818171,245.59646512246582L190.8002213325047,240.48657717074775L210.15719657963325,242.47262927428937L210.0737997387649,243.54037842662729L210.32223207076817,243.56311769174135L210.28320023941313,243.82708070739136L210.1086705190295,245.0833664985721L209.52090740092285,248.83346983903039L208.4048080070408,256.21552611152083L202.24592493606855,260.05898937292295L195.1923572743056,262.6368484329555L187.73294061534574,260.39925786068125L183.55301827915554,262.97530012375955L178.53860007710216,259.77521740982775Z" style="stroke: rgb(68, 68, 68); stroke-opacity: 1; stroke-width: 1px; opacity: 1;"/><path class="choroplethlocation" fill="rgb(247, 251, 255)" d="M166.4743064135511,225.82994867787602L164.64948038817354,219.37463467147745L173.9634364936773,220.81535465676325L180.19458119837458,218.49946599636542L187.41113312890323,218.53328186226918L187.72766604354103,220.05019010695696L192.03077893454866,220.46436120633507L188.9091115214473,229.65711937303695L175.32943337839635,225.73653015057926Z" style="stroke: rgb(68, 68, 68); stroke-opacity: 1; stroke-width: 1px; opacity: 1;"/><path class="choroplethlocation" fill="rgb(246, 251, 255)" d="M190.8002213325047,240.48657717074775L180.694727818171,245.59646512246582L180.12038555498913,249.53094405067623L172.42044842173235,251.56288492891917L165.70439474912033,249.40370965747525L167.8672622208269,244.15779635954823L162.7628246599732,243.20743573304208L163.47330948207127,238.4344757069398L168.265316573024,232.45897191571112L166.4743064135511,225.82994867787602L175.32943337839635,225.73653015057926L188.9091115214473,229.65711937303695Z" style="stroke: rgb(68, 68, 68); stroke-opacity: 1; stroke-width: 1px; opacity: 1;"/><path class="choroplethlocation" fill="rgb(247, 251, 255)" d="M290.8121978109903,215.94446341415278L290.82649776121633,215.8753079171579L291.2220906465712,213.39133623524867L291.2319365139402,213.360567899721L291.64095025422057,210.80837842247092L298.07651391952794,209.46500359015909L310.30490537256054,216.4579722825206L310.1780226174801,218.1002981234542L310.3223700658692,222.3652582784075L308.06174719671395,225.8641161819005L293.6181527984015,226.13171279146036L289.73050034654614,223.19225253103605Z" style="stroke: rgb(68, 68, 68); stroke-opacity: 1; stroke-width: 1px; opacity: 1;"/><path class="choroplethlocation" fill="rgb(247, 251, 255)" d="M429.7267200289283,230.97470740985955L439.34044763200154,231.981681773736L442.8043175425231,235.09362053217546L440.33745891580224,239.63221375108742L438.33868923357574,246.18475569775364L425.8947436127904,242.21048305559452L417.09300703587917,237.8251454507863L417.43509232059284,235.3577593668856L417.90822141147817,235.06789234303915L417.0251994850119,233.25894863942904L417.01148559831984,232.78634700572502L424.8406497407913,229.41507513355327L429.1776371040565,229.8428429069172L429.67004768520445,230.97974755625Z" style="stroke: rgb(68, 68, 68); stroke-opacity: 1; stroke-width: 1px; opacity: 1;"/><path class="choroplethlocation" fill="rgb(247, 251, 255)" d="M535.8527457180469,204.21838701599154L534.0573400820691,205.61327683292984L532.7429753946836,208.45000015586857L532.2740659612424,208.6554154244859L532.708339039832,209.88726236630464L532.7352979623903,209.94774412299876L532.7641322882554,210.02246722356585L532.773216273031,210.1032853848851L532.8729642864931,210.28238640083237L532.8679827464557,210.33536654429327L532.8995715709311,210.49108362523975L532.8597192506285,210.53937526042955L532.7452610424658,210.72679837855821L532.7268000411485,210.74965485637858L532.7449680106985,210.89365066664777L532.8424303763791,210.94035993029593L532.9012711551786,211.00365479195307L532.9262374617213,211.1647050510578L532.980624157663,211.27095836974604L532.8997473899906,211.67194303961242L531.8568473314883,213.51060016438896L531.9040254459642,213.65049352992173L531.5118317291058,217.37070763015254L531.2206167591308,220.13317670335164L530.9253579507728,220.08494367451522L529.9369031945652,220.30946461433632L528.9356136469668,220.2323386532803L527.4830551782975,219.66667013039978L527.2500363172345,218.9572988290165L526.8325246557139,219.0953167912403L523.6564705466701,220.31514943061438L520.54259777857,222.3807889620548L519.957940797191,223.2541994465655L519.0858196524558,224.5569600759809L511.7042322307923,218.5419556025704L518.0985370233169,212.39590732298848L516.1057451891355,210.2902396521863L525.312861912417,204.0837682222641Z" style="stroke: rgb(68, 68, 68); stroke-opacity: 1; stroke-width: 1px; opacity: 1;"/><path class="choroplethlocation" fill="rgb(244, 249, 254)" d="M413.6113794002822,230.43506010788178L417.43509232059284,235.3577593668856L417.09300703587917,237.8251454507863L418.188476993369,241.72533966226592L410.0029276159578,246.69586170563252L406.53448640987193,249.39099207879053L398.25809718471277,246.89371675466327L388.20183300722255,251.50269620399195L382.51021839179543,246.12064034714967L382.2166005613319,245.79109682206035L382.0294118686175,245.3455713236208L386.50904709602435,240.49044519007066L394.5126823525259,237.95302451387397L392.43649367747616,236.04204714901925L401.36224129815105,229.15773463583582Z" style="stroke: rgb(68, 68, 68); stroke-opacity: 1; stroke-width: 1px; opacity: 1;"/><path class="choroplethlocation" fill="rgb(247, 251, 255)" d="M84.63328840872279,210.58936647986775L83.80904865470393,216.09443707246737L78.90920587352048,226.21223792101273L76.6091995348892,227.6175010625002L68.0244822845666,229.21610656380835L63.90064622856704,225.52378908778837L64.39932768952676,225.30723861202705L65.17656514813214,225.52964972312702L69.61142512155106,226.1261451878886L70.36234832748428,226.06695277096924L73.17193690880492,225.55268202000752L73.57491419468727,225.27811125439484L73.52896681363296,224.22524811581616L73.2970028669314,223.8251425412509L72.98580313045193,223.6440489092879L72.4295116241127,223.80269630790417L71.01106205311316,223.18346157802853L69.05788811382072,221.96614901184967L68.56348491665722,221.15046578542433L68.59015080744811,220.7671802342802L68.82217336050255,220.3839532894899L69.12411329314696,220.1286054077873L69.41837579349803,220.02358282251998L70.82680367806773,220.01637424105365L72.069082550789,220.2866081365155L72.97355440259429,220.3415222896383L73.7462205656339,220.19869860643666L74.49767122874817,219.65049477686534L74.83887741816133,218.98841880266446L75.05103241741841,218.0994776345069L74.46830944570203,212.21809564681598L74.28235148640914,211.8731386507866L73.3196835256912,210.8829257039779L75.72629482113098,210.90132809894158L76.0485711584002,210.9078920105203L76.4840749704106,210.91275633785153L75.99242627185669,212.025808201357L76.00983235881176,212.5284162879948L76.41908052450586,213.02680471718804L77.268696829542,213.29750746347827L77.92989370844148,213.2307548269714L78.63129454576386,212.86270692770768L79.75401645757862,211.83973302935647L80.45834761256995,210.83416521796107L81.24250062087387,210.8278357317954L82.53893176412313,210.7738592803271L82.63897280935404,210.75311263122785L84.01575326309546,210.64885192855445Z" style="stroke: rgb(68, 68, 68); stroke-opacity: 1; stroke-width: 1px; opacity: 1;"/><path class="choroplethlocation" fill="rgb(247, 251, 255)" d="M75.4870636866099,264.65894344383014L66.75835062601763,260.7095785018596L60.483954432520534,260.5717363586964L51.594484144591064,267.161844977883L53.0517311215319,260.2935906055268L52.72482488234476,260.4517691533151L51.80839733444921,260.5257889776417L50.83541465553705,260.2826898237968L49.97776928008739,259.67212883422235L48.90117056838781,258.21224457137896L48.7177912886429,256.26575175637254L48.87180878534167,255.70594386883022L49.22204035317617,255.40664122208864L51.58282148026737,254.18159261726214L51.84408860366145,254.20110853294L52.811972529830484,254.69955556848709L54.18289234823402,254.93286746131616L56.78589353386889,254.33865764433676L63.66282164652682,250.61334479136076L63.82867762660939,250.14765870735664L63.72095914908516,249.80035745719124L63.347167827190304,249.52150842778065L62.16003753300478,249.01040241990268L60.99336085615127,248.6984408008293L59.8218784583205,248.19425034264987L59.64289465507903,247.98678385166386L59.57860348541547,247.60004052567047L59.68632196293822,247.1296073270414L60.040128518329965,246.4512387865998L60.60585564756357,246.12784892861646L61.92016172859613,245.6659136512285L63.01469398443189,245.57519101618664L64.58493401070018,246.1202887090294L64.59677249408472,245.62576829915906L81.06363403033964,243.21030744435802L84.82241111109985,247.0586936394443L84.04857282099161,250.76841720241964L81.3660428138115,250.4740960957156Z" style="stroke: rgb(68, 68, 68); stroke-opacity: 1; stroke-width: 1px; opacity: 1;"/><path class="choroplethlocation" fill="rgb(246, 250, 255)" d="M188.40779277458446,275.3350870210834L195.82337188121204,274.035901379224L195.8430050095957,271.8544556934935L204.86551171971158,272.62618415487896L204.82401842151432,272.77551314330685L208.76881206792103,273.52544004123274L208.86381296675944,272.8703968294385L210.02029213812375,273.2983404218621L208.9961461127047,298.72646502894486L208.61573227287715,298.7172638314637L206.3025395047341,298.66416647529604L204.59293357011404,298.63339813976836L201.65874788149438,298.5896191937886L201.07092615703414,298.58018357089395L199.79389371675404,298.5628946966449L199.19358883902242,298.547891470178L197.66478350459704,298.5306025959294L197.42197738251946,298.5300165323956L197.00763046408076,298.52321819540293L186.60980845905794,298.4911019137471L187.617720524589,295.26259511842363Z" style="stroke: rgb(68, 68, 68); stroke-opacity: 1; stroke-width: 1px; opacity: 1;"/><path class="choroplethlocation" fill="rgb(247, 251, 255)" d="M202.24592493606855,260.05898937292295L205.13873453919666,266.56927613879725L204.86551171971158,272.62618415487896L195.8430050095957,271.8544556934935L195.82337188121204,274.035901379224L188.40779277458446,275.3350870210834L180.07355907863354,270.35981786309185L183.55301827915554,262.97530012375955L187.73294061534574,260.39925786068125L195.1923572743056,262.6368484329555Z" style="stroke: rgb(68, 68, 68); stroke-opacity: 1; stroke-width: 1px; opacity: 1;"/><path class="choroplethlocation" fill="rgb(247, 251, 255)" d="M241.02082603784646,299.15177133546695L234.80784930269908,299.1602692567076L234.80667717563045,299.1602692567076L232.63771464317153,299.1697048796027L231.72058381903554,299.1697048796027L232.18972767788978,283.2338755113774L236.96040205620992,283.8667655215918L245.41647836085028,279.52198351332663L245.6002092787154,277.2986342849249L246.5732505639819,276.94506215494766L248.34204891552244,277.5897320421932L248.87085404212306,277.4005507334632L249.94715972205603,277.89829449276976L249.83147078047188,280.4290340446805L257.7484858466695,284.8922008867853L259.2696723551544,291.396099560141L262.0867625497083,291.2448365620521L261.9631617504178,296.78214064901385L262.05200898215094,299.205864999642L257.4548094098524,299.17579994035486L255.30254968810812,299.20949859355187L253.31749389257368,299.2325308904324L249.7608501246422,299.2334099857335L248.1562667752889,299.2161797178378L247.25648343175516,299.21383546370225L246.21651369092194,299.2029346819727L245.56733111446636,299.200414608777L243.15433172650762,299.17111143208376L242.07609203691345,299.16806390170814L241.4171808057961,299.1558737802038L241.21164832447172,299.15581517385L241.07298569235962,299.15177133546695Z" style="stroke: rgb(68, 68, 68); stroke-opacity: 1; stroke-width: 1px; opacity: 1;"/><path class="choroplethlocation" fill="rgb(247, 251, 255)" d="M388.20183300722255,251.50269620399195L390.147270907868,259.96387126137734L386.90944570235575,262.90497249969667L373.1234731953871,259.31908416142596L367.1279846376529,262.10575765857266L367.12013138630016,261.8756105088264L366.6499912194374,261.79110014724347L366.56911445176496,261.54841123787264L365.85312063244993,261.10118615518513L365.7577680954913,261.3608709070377L365.2481272464468,261.35635821782716L365.2512919895295,261.78547393731833L364.720201215146,261.7783239622054L364.72131473586103,261.5751357350164L363.70267770766037,261.5841611134383L363.69236298946396,260.9196822787485L382.51021839179543,246.12064034714967Z" style="stroke: rgb(68, 68, 68); stroke-opacity: 1; stroke-width: 1px; opacity: 1;"/><path class="choroplethlocation" fill="rgb(246, 251, 255)" d="M293.1201746136808,203.63654313957613L293.1220500169898,203.6366017459295L291.64095025422057,210.80837842247092L291.2319365139402,213.360567899721L291.2220906465712,213.39133623524867L290.82649776121633,215.8753079171579L290.8121978109903,215.94446341415278L281.97043309471695,215.11008476099732L270.8722651667316,214.04227700230604L267.3457450644411,211.51171326945587L268.6916985763019,202.58532097889292L268.72738984551415,202.58778244573523L269.1543957362835,202.60993564731461L275.9309897719447,202.93314968623827L276.00588869157207,202.92775790172664L278.4849374397962,203.111547425945L278.7912728489433,203.1344625101192L278.8128985933432,203.13715840237455L282.1153080002864,203.25243709948472Z" style="stroke: rgb(68, 68, 68); stroke-opacity: 1; stroke-width: 1px; opacity: 1;"/><path class="choroplethlocation" fill="rgb(246, 250, 255)" d="M127.95475319347423,252.4258634825269L127.55921891447224,264.2212711967445L123.91062177807927,270.0189633117998L114.1972047678968,273.61370120943184L100.291733906373,273.402601124536L100.83864839617064,258.091632696111L103.68597946907192,259.3594639389089L111.18888204224385,252.7489017023904L109.82669457049579,251.95976715404868L110.13244391610897,251.95806756980073L122.09710677890519,252.32500194834984Z" style="stroke: rgb(68, 68, 68); stroke-opacity: 1; stroke-width: 1px; opacity: 1;"/><path class="choroplethlocation" fill="rgb(247, 251, 255)" d="M306.6051448896614,279.97448316781947L313.3101219614844,283.29429866171813L316.6539074539169,290.06198453166417L318.1266851145053,293.5429674973743L311.5327084759949,299.6263655851858L303.87326833292985,299.584989499695L291.02405977848,299.3819770915661L290.771290576327,299.3806291454389L288.70770226725506,299.36808738581385L288.17497051497696,285.5965906481306L295.9644581562066,286.06936810089474L297.7633801733873,281.7350766298855Z" style="stroke: rgb(68, 68, 68); stroke-opacity: 1; stroke-width: 1px; opacity: 1;"/><path class="choroplethlocation" fill="rgb(246, 250, 255)" d="M232.18972767788978,283.2338755113774L227.6096411607797,280.2802325134335L224.42421003519505,274.24694285776695L230.94305332866355,267.88850515351487L234.90232274435644,257.2760666823924L240.51815934485566,257.07352312509056L240.72709099467644,257.4224653531505L241.25132482571354,257.4688229786789L241.2178019915762,257.8406216845592L243.10943925981394,258.3050770351424L243.258416610121,258.48892516571414L242.1559724965782,273.17679084493966L245.6002092787154,277.2986342849249L245.41647836085028,279.52198351332663L236.96040205620992,283.8667655215918Z" style="stroke: rgb(68, 68, 68); stroke-opacity: 1; stroke-width: 1px; opacity: 1;"/><path class="choroplethlocation" fill="rgb(234, 243, 251)" d="M209.52090740092285,248.83346983903039L224.846820449461,252.86248081525218L234.90232274435644,257.2760666823924L230.94305332866355,267.88850515351487L224.42421003519505,274.24694285776695L215.0425635915298,271.9824519692879L210.02029213812375,273.2983404218621L208.86381296675944,272.8703968294385L208.76881206792103,273.52544004123274L204.82401842151432,272.77551314330685L204.86551171971158,272.62618415487896L205.13873453919666,266.56927613879725L202.24592493606855,260.05898937292295L208.4048080070408,256.21552611152083Z" style="stroke: rgb(68, 68, 68); stroke-opacity: 1; stroke-width: 1px; opacity: 1;"/><path class="choroplethlocation" fill="rgb(247, 251, 255)" d="M367.1279846376529,262.10575765857266L373.96289199493253,275.33954110394006L374.44352269905033,279.32500755959654L368.90498787866784,281.956550039331L356.71029507883196,284.56037171391426L347.53506021179317,278.17046239789397L350.20874065961203,273.07780471407114L361.6181083240761,260.90637863652955L363.69236298946396,260.9196822787485L363.70267770766037,261.5841611134383L364.72131473586103,261.5751357350164L364.720201215146,261.7783239622054L365.2512919895295,261.78547393731833L365.2481272464468,261.35635821782716L365.7577680954913,261.3608709070377L365.85312063244993,261.10118615518513L366.56911445176496,261.54841123787264L366.6499912194374,261.79110014724347L367.12013138630016,261.8756105088264Z" style="stroke: rgb(68, 68, 68); stroke-opacity: 1; stroke-width: 1px; opacity: 1;"/><path class="choroplethlocation" fill="rgb(247, 251, 255)" d="M117.70415034815662,284.1768517373566L121.33815450255693,284.17902017243205L125.9579175209096,277.52913307279186L142.27169926212065,276.3583539512015L141.2205357077905,298.9443048444805L135.9873985949017,298.91840083628404L135.98294451204464,298.9195143569982L117.42026117235486,298.9652859189928L117.4019759900992,291.8998797738468Z" style="stroke: rgb(68, 68, 68); stroke-opacity: 1; stroke-width: 1px; opacity: 1;"/><path class="choroplethlocation" fill="rgb(247, 251, 255)" d="M361.26629438470064,260.0731135040887L361.61722922877556,260.0733479295027L361.6181083240761,260.90637863652955L350.20874065961203,273.07780471407114L347.53506021179317,278.17046239789397L342.4840130388749,281.82081772488937L338.38197854633313,274.7001457885003L341.15933363329225,271.336961593096L344.78735993964744,272.43893685581133L346.72599950330016,266.4408110121758L351.3597108337579,266.3040823897268L352.1274540631145,259.19173255551823L355.5237508481811,254.56253391427072Z" style="stroke: rgb(68, 68, 68); stroke-opacity: 1; stroke-width: 1px; opacity: 1;"/><path class="choroplethlocation" fill="rgb(247, 251, 255)" d="M368.90498787866784,281.956550039331L374.44352269905033,279.32500755959654L373.96289199493253,275.33954110394006L367.1279846376529,262.10575765857266L373.1234731953871,259.31908416142596L386.90944570235575,262.90497249969667L393.1661427771304,266.9674477037015L398.30861586133136,266.45346998450714L400.2285013919009,271.5090298466371L400.2286186046074,271.56177556468447L400.20834080633625,271.75763799769993L397.95164456285767,273.7675428870698L397.8142712705207,273.9230255426028L396.4952766812181,277.9464689152528L395.8748112179211,278.12598017567416L395.74874895178834,278.1835902210519L395.7143470223497,278.27073786853725L396.04435939826664,279.550290382012L396.04265981401846,279.6213212823159L396.6913735396466,281.02406435060766L396.5683001975364,281.35225992956885L396.2446173077863,281.6297024064979L394.68105840580284,282.9698538893731L392.23154725968493,284.1888660398008L391.2035918212957,284.04920709968246L391.1900537536637,284.0097650238531L390.84597585293517,283.99769211505554L390.6253229324371,284.045397686712L386.05613719705735,283.69715873489304L385.53225500414123,283.0931616568978L384.8348393988477,282.9173425967397L384.59455334996596,282.987670220803L380.9362275589105,285.4670706071479L380.81426773751383,286.57443765437483Z" style="stroke: rgb(68, 68, 68); stroke-opacity: 1; stroke-width: 1px; opacity: 1;"/><path class="choroplethlocation" fill="rgb(221, 235, 247)" d="M186.81106267658464,215.52583823191753L186.76282964774893,215.12022366013343L184.55184635991094,202.68770627825825L189.01870540227983,202.62458723566124L189.1286509212311,202.62458723566124L196.5448746977455,202.52882445422892L197.21884776168372,202.51124254821298L197.84593574291267,202.51124254821298L201.74402012567106,202.48821025133202L201.95881241082975,202.4841078065956L202.43651279727857,202.4821737969337L205.62903529162412,202.46939761189515L205.8111838379475,202.47191768509128L207.61291896009067,202.4647091036245L208.58683934065772,202.4619546050153L208.61655276182407,202.46154436054167L215.3883410765073,202.43112766313425L215.0683503870202,213.38781985404557L213.31994704645734,213.99867387538734L213.41805408202632,215.3034857271714L213.279039811794,215.66268406707377L212.59012212774297,215.85878092550274L212.56005706845642,215.38629650450548L212.08739682839854,215.01965515772326L211.73886484481227,215.19740822754284L205.33629655646112,221.21335040260738L192.03077893454866,220.46436120633507L187.72766604354103,220.05019010695696L187.41113312890323,218.53328186226918Z" style="stroke: rgb(68, 68, 68); stroke-opacity: 1; stroke-width: 1px; opacity: 1;"/><path class="choroplethlocation" fill="rgb(247, 251, 255)" d="M249.94715972205603,277.89829449276976L254.7023034167294,279.8919654222518L265.63701822512155,274.5133087339059L265.40851205326925,279.1371741969947L262.0867625497083,291.2448365620521L259.2696723551544,291.396099560141L257.7484858466695,284.8922008867853L249.83147078047188,280.4290340446805Z" style="stroke: rgb(68, 68, 68); stroke-opacity: 1; stroke-width: 1px; opacity: 1;"/><path class="choroplethlocation" fill="rgb(247, 251, 255)" d="M356.8756822080878,218.3480271792164L362.13519218000016,224.23485955777141L372.09874110643335,230.49982012837336L377.9137807020909,237.2103061974144L371.8045372124359,240.90209621625354L362.3920638268908,242.94388296186617L358.05671744152096,245.44584679426407L355.7069543088659,240.37874148051742L344.7460424605103,230.9209067774509L346.45734797937934,223.6589349230485L351.18641184679643,222.68079488503736Z" style="stroke: rgb(68, 68, 68); stroke-opacity: 1; stroke-width: 1px; opacity: 1;"/><path class="choroplethlocation" fill="rgb(247, 251, 255)" d="M84.63328840872279,210.58936647986775L84.6334642277829,210.58936647986775L88.36991228790276,210.3800245855732L88.5578628632112,210.3959069073412L92.52445807307643,210.44753910467443L95.33639090853359,210.51224051881218L95.34840521097749,210.5124749442257L97.89303446864102,210.5637555034382L98.0259536781202,210.5663341829877L99.63124030371318,210.57870012355215L100.68779564255456,210.58708083208603L101.46415400585866,210.5924726165972L102.88371709757172,210.60378364280132L104.3025769130451,210.61866965656054L104.5143802741812,210.6201934217488L104.91067643577799,210.6231823457715L106.99659376548877,210.64908635396796L112.25627955646198,210.6341417338549L114.59227019607059,210.60688977953077L114.60633572088366,210.60671396047064L115.03562725943522,210.61034755438004L115.67332299062795,216.00916482829052L107.8326720028929,216.09613665671577L107.26805839437282,227.0211814167983L107.18641974410627,228.26357750222678L95.8617968666378,228.08523836887343L76.6091995348892,227.6175010625002L78.90920587352048,226.21223792101273L83.80904865470393,216.09443707246737Z" style="stroke: rgb(68, 68, 68); stroke-opacity: 1; stroke-width: 1px; opacity: 1;"/><path class="choroplethlocation" fill="rgb(247, 251, 255)" d="M310.3223700658692,222.3652582784075L310.1780226174801,218.1002981234542L310.30490537256054,216.4579722825206L313.62284546315124,210.71290867280504L322.6441214398456,208.9435242577315L328.47656712245896,211.34251672723076L332.28093994615256,216.218272297172L332.17544851005755,222.22923293219856L334.50493384444144,228.58380261712728L332.33145862277115,231.5992167115396L327.37494349786385,231.14384534573082L314.7584021663568,226.2410722468785Z" style="stroke: rgb(68, 68, 68); stroke-opacity: 1; stroke-width: 1px; opacity: 1;"/><path class="choroplethlocation" fill="rgb(247, 251, 255)" d="M180.50572232850118,257.1579748803201L178.53860007710216,259.77521740982775L183.55301827915554,262.97530012375955L180.07355907863354,270.35981786309185L165.0925444197708,271.7299757989017L163.06892564370804,273.8742064502321L161.0397978704276,272.6296419297287L165.00756520736076,268.15164768021714L161.42044613566964,262.24330676996897L161.4819242003707,256.6509713171781L165.2356611347392,250.88152746445485L165.33828085951808,250.11249489532474L165.70439474912033,249.40370965747525L172.42044842173235,251.56288492891917L180.12038555498913,249.53094405067623Z" style="stroke: rgb(68, 68, 68); stroke-opacity: 1; stroke-width: 1px; opacity: 1;"/><path class="choroplethlocation" fill="rgb(247, 251, 255)" d="M323.1477844408442,203.36314450103055L333.7060706414384,203.59921089246927L334.2753141518749,203.6326165138994L340.8115049259464,204.07720431068446L347.56002651833586,204.5362092704031L347.55879578491437,204.54013589607985L351.91676422269114,204.7191196993208L353.9948869074028,207.64070502196228L355.0557205100419,209.3314397107929L342.67190500782897,206.01455453456265L336.765556713596,207.33196675232512L332.28093994615256,216.218272297172L328.47656712245896,211.34251672723076L322.6441214398456,208.9435242577315Z" style="stroke: rgb(68, 68, 68); stroke-opacity: 1; stroke-width: 1px; opacity: 1;"/><path class="choroplethlocation" fill="rgb(247, 251, 255)" d="M368.90498787866784,281.956550039331L380.81426773751383,286.57443765437483L379.8697677463465,293.22649318909L379.86162146322573,293.2506390066851L379.0825672076664,299.3663878015659L374.85904174455686,299.3863139617174L374.80231079447947,299.38854100314575L368.1124541618301,299.3883651840856L368.06357646310687,299.3897131302133L361.5232832442978,299.3710177034832L355.31388149670613,299.3891270666795L355.1036019007581,299.38514183464986L352.47627907846663,299.40202046442437L356.92538039575874,288.6668602893119L356.71029507883196,284.56037171391426Z" style="stroke: rgb(68, 68, 68); stroke-opacity: 1; stroke-width: 1px; opacity: 1;"/><path class="choroplethlocation" fill="rgb(242, 248, 253)" d="M293.6181527984015,226.13171279146036L308.06174719671395,225.8641161819005L310.3223700658692,222.3652582784075L314.7584021663568,226.2410722468785L327.37494349786385,231.14384534573082L332.33145862277115,231.5992167115396L333.46666368785645,231.9601146356904L324.9014037468574,234.17912699394128L323.8556319770392,241.3023776098794L321.2091448771908,238.22917765102875L309.4902184541433,235.2786407898143L301.5618923617422,239.19846812967808L292.0201333606266,232.36912837597038Z" style="stroke: rgb(68, 68, 68); stroke-opacity: 1; stroke-width: 1px; opacity: 1;"/><path class="choroplethlocation" fill="rgb(247, 251, 255)" d="M355.5237508481811,254.56253391427072L352.1274540631145,259.19173255551823L351.3597108337579,266.3040823897268L346.72599950330016,266.4408110121758L344.78735993964744,272.43893685581133L341.15933363329225,271.336961593096L338.38197854633313,274.7001457885003L331.4167306591238,271.8072775790174L333.0242443261468,265.20175548889074L344.25908227022717,254.0325566606025L352.12176924683524,250.33678140973234Z" style="stroke: rgb(68, 68, 68); stroke-opacity: 1; stroke-width: 1px; opacity: 1;"/><path class="choroplethlocation" fill="rgb(247, 251, 255)" d="M378.8998325978098,239.8148897545916L379.18858610094173,240.57255269116467L382.0294118686175,245.3455713236208L382.2166005613319,245.79109682206035L382.51021839179543,246.12064034714967L363.69236298946396,260.9196822787485L361.6181083240761,260.90637863652955L361.61722922877556,260.0733479295027L361.26629438470064,260.0731135040887L355.5237508481811,254.56253391427072L352.12176924683524,250.33678140973234L358.05671744152096,245.44584679426407L362.3920638268908,242.94388296186617L371.8045372124359,240.90209621625354L377.9137807020909,237.2103061974144L377.99623984130506,237.4007768459187L378.0084299628091,237.44496603637162Z" style="stroke: rgb(68, 68, 68); stroke-opacity: 1; stroke-width: 1px; opacity: 1;"/><path class="choroplethlocation" fill="rgb(238, 245, 252)" d="M227.21217287211576,217.6566480283227L222.7834079594492,218.35822468470587L215.0683503870202,213.38781985404557L215.3883410765073,202.43112766313425L215.3887513209811,202.43112766313425L218.56128904882056,202.37263852245542L227.6019051221327,202.20602065977937L227.63472468002885,202.20326616117018L230.66789649951653,202.16915726349953L231.90525243855407,202.1500515922953L232.76969615099657,202.12490946669323L232.89974364915966,202.12004513936154L233.08429505597243,202.12444061586575L235.99949228609452,202.05059661059977L236.25589508215774,202.04409130537397L245.19488773869875,201.8630562797648L245.27412352847668,201.862001365404L247.66467668308786,202.95225535744203L239.7822393653882,216.20444119777267L236.49764628987467,216.3160276946196L232.3958462227481,219.57594749535838Z" style="stroke: rgb(68, 68, 68); stroke-opacity: 1; stroke-width: 1px; opacity: 1;"/><path class="choroplethlocation" fill="rgb(222, 235, 247)" d="M256.2835028310817,237.64750959367348L262.54418513788596,241.3370139647309L271.75411496612924,242.7531778879479L268.5932985089663,257.4404575036401L266.36520216594056,261.65290636596L260.6935723170188,259.7572252593386L257.09678319701806,262.4170746077589L248.90338056825263,257.8022345230911L243.258416610121,258.48892516571414L243.10943925981394,258.3050770351424L241.2178019915762,257.8406216845592L241.25132482571354,257.4688229786789L240.72709099467644,257.4224653531505L240.51815934485566,257.07352312509056L244.78851128432075,252.368605075269L244.46242553408132,241.94294505238759L250.516637657907,234.1842843530394Z" style="stroke: rgb(68, 68, 68); stroke-opacity: 1; stroke-width: 1px; opacity: 1;"/><path class="choroplethlocation" fill="rgb(247, 251, 255)" d="M351.92016339118754,204.71923691202755L352.32372674060383,204.72802786503507L382.6303614162374,205.38682188344683L382.73233647112875,209.95788302213487L377.43748686812364,212.75299583416927L378.61031721208315,223.37281870581864L376.101730861752,227.37610149290367L372.09874110643335,230.49982012837336L362.13519218000016,224.23485955777141L356.8756822080878,218.3480271792164L359.3197429633409,216.9178563375399L355.0557205100419,209.3314397107929L353.9948869074028,207.64070502196228L351.91676422269114,204.7191196993208Z" style="stroke: rgb(68, 68, 68); stroke-opacity: 1; stroke-width: 1px; opacity: 1;"/><path class="choroplethlocation" fill="rgb(247, 251, 255)" d="M306.6646889447006,267.45118454454905L314.50217518935295,265.4324887021712L315.70395707188476,269.8362873082956L326.10195489596845,277.9241985009662L324.9223262150169,279.98708353379743L316.6539074539169,290.06198453166417L313.3101219614844,283.29429866171813L306.6051448896614,279.97448316781947L310.8784857531483,274.8674669274169L303.74662000326236,267.52889656913885Z" style="stroke: rgb(68, 68, 68); stroke-opacity: 1; stroke-width: 1px; opacity: 1;"/><path class="choroplethlocation" fill="rgb(247, 251, 255)" d="M417.69899672988925,265.3319201997606L417.7073774384245,258.2124203904391L410.846566072948,248.2747754722027L410.5795555269218,247.77310508721894L410.5942071152681,247.16002402444883L410.0029276159578,246.69586170563252L418.188476993369,241.72533966226592L417.09300703587917,237.8251454507863L425.8947436127904,242.21048305559452L438.33868923357574,246.18475569775364L441.579210331344,256.7850040473718L441.86016918947604,257.1146647851674L441.6529371239027,257.90831202271966L439.1373766175194,260.13869401352804L435.04741503377664,261.2535040676348L430.42565939940914,262.8314801325505L428.4752399587256,264.5009993214553L428.50800091026883,264.74210585928495L428.3852792062789,264.8926655811333L428.0975220111533,265.3866585338228L427.34689183698663,265.692759517558L419.0152368205845,265.51143146018194Z" style="stroke: rgb(68, 68, 68); stroke-opacity: 1; stroke-width: 1px; opacity: 1;"/><path class="choroplethlocation" fill="rgb(238, 245, 252)" d="M67.24302516851864,296.0579419402238L67.18465324054662,297.97835492797367L67.18717331374248,298.0017388629749L67.15535006385335,298.96288305850385L62.464380326137814,298.9939444257989L58.311358306151476,299.0214894118899L55.18758106432807,299.02735004722854L53.143567277287644,299.02336481519797L52.55533530835356,299.0177972116262L28.181245966916407,298.9393819107959L28.14725428195237,298.115611007604L28.98421161465629,296.3373184268148L34.94664618907987,295.074175692288L36.07569758705998,291.8487164273406L36.92759953987749,291.1367664464083L37.939379624732425,290.7698320678587L39.89689043417542,291.71925499271083L40.41262634397077,291.84818897015975L40.9976935698229,291.7546532301558L41.419073250667395,291.5563879366514L42.47562858950877,290.6174555490561L42.52134154515008,290.44573893363486L42.00900480385039,286.32084796327354L41.95579023497584,285.89231830731615L41.77129743451667,285.47252099801244L40.56769875503019,284.0364309146439L40.14889775373521,283.7841305633174L39.48078532513492,283.69622103323854L38.08003487285856,283.9012846637361L37.394340538243085,283.6844411562083L36.99751691946673,283.2983425001016L36.544548414146846,282.59442158958336L36.41110174748735,282.16020711734745L36.70759128926696,281.3328026202448L36.99470381450425,281.06778469023357L37.318152278840614,280.95344369477743L39.5745554905526,280.8773140417293L41.227371868742324,277.0064816132963L41.056182710502185,276.4258684703018L41.913007597004196,276.1732750872088L42.6868458871117,276.0541869771282L43.12440092149126,275.87291752610554L48.807752041091106,267.70284022598844L50.201118092840716,267.4323132987588L43.87215938434255,275.442571073193L52.79474226193477,275.7774477764401L63.7445775095006,274.7414046612839L67.82967476591176,276.6613487982063Z" style="stroke: rgb(68, 68, 68); stroke-opacity: 1; stroke-width: 1px; opacity: 1;"/><path class="choroplethlocation" fill="rgb(246, 250, 255)" d="M281.97043309471695,215.11008476099732L290.8121978109903,215.94446341415278L289.73050034654614,223.19225253103605L293.6181527984015,226.13171279146036L292.0201333606266,232.36912837597038L277.23427785853966,235.0391166235263L272.71590383154586,222.74145246079206Z" style="stroke: rgb(68, 68, 68); stroke-opacity: 1; stroke-width: 1px; opacity: 1;"/><path class="choroplethlocation" fill="rgb(246, 251, 255)" d="M186.81106267658464,215.52583823191753L187.41113312890323,218.53328186226918L180.19458119837458,218.49946599636542L173.9634364936773,220.81535465676325L164.64948038817354,219.37463467147745L164.53209186234116,219.21194343447814L164.19106149198885,218.99726836202535L164.05286771070422,218.97458770326512L160.09342247595197,214.33935260761928L160.39747223731842,210.94569310845418L160.40257099006232,210.94575171480756L161.20688458393167,210.1675179481963L161.30411252419788,209.96579487984172L161.61666020680534,208.3944413328586L161.43287068258735,207.15937104160366L160.8759931127142,204.7446134630436L160.26197434828978,202.82402465623363L159.52329987021346,201.41530373989644L159.38709870494512,200.3386464218438L162.82963590283413,200.4027031660944L172.33705158086474,201.1835742186081L172.12390027359987,202.96837210462309L181.44336537632205,202.75791668961483L184.55161193449794,202.68770627825825L184.55184635991094,202.68770627825825L186.76282964774893,215.12022366013343Z" style="stroke: rgb(68, 68, 68); stroke-opacity: 1; stroke-width: 1px; opacity: 1;"/><path class="choroplethlocation" fill="rgb(247, 251, 255)" d="M479.4572584072571,205.2626936269753L482.2763412178273,205.22161057325184L482.352529477229,205.22161057325184L482.6736922937839,205.21715649039425L497.9394752237482,205.1767767129113L500.9014403238723,205.16892346155737L501.8755365235002,205.16634478200876L501.9304506766223,205.16628617565493L502.06354570516226,205.16763412178352L502.1650519092269,205.16218373091806L502.7926087412826,205.15948783866224L502.82238076880253,205.16464519776036L504.1120721814134,205.19939876531816L504.5663300265076,205.21410896001817L504.77104201888505,205.2234859765599L504.9623917626899,205.23292159945458L506.32528251067913,205.22905358013168L506.45175502128643,205.22641629422924L506.59821229839764,205.2267679323495L519.0184223460617,205.25601250268892L519.6923954099999,203.96667272819877L525.312861912417,204.0837682222641L516.1057451891355,210.2902396521863L504.1377417641965,216.60249554997017L497.58519981753057,216.84295741791266L489.4736702644454,213.95964204403208L475.2668455338111,214.7744461751563Z" style="stroke: rgb(68, 68, 68); stroke-opacity: 1; stroke-width: 1px; opacity: 1;"/><path class="choroplethlocation" fill="rgb(224, 236, 248)" d="M267.3457450644411,211.51171326945587L264.13282755911786,219.71496176558958L263.2422454130656,221.69972452935735L254.25970823595884,220.4106777866341L248.88474374787603,221.29135545896406L245.90449346549556,225.7159593205406L238.33202515085387,219.70441262198028L236.49764628987467,216.3160276946196L239.7822393653882,216.20444119777267L247.66467668308786,202.95225535744203L247.67106477560682,202.95518567511135L252.98349628462714,201.888608649841L252.98841921831163,201.8883156180741L253.0600947885027,201.88321686532936L253.27652805155674,201.87864556976547L256.62353689342626,201.9543063719866L261.21452419226597,202.05815683018636L267.7139687827646,202.52038513934122L267.89389028765873,202.52431176501796L268.05042785755336,202.53773261994365L268.0637314997716,202.54171785197377L268.6916985763019,202.58532097889292Z" style="stroke: rgb(68, 68, 68); stroke-opacity: 1; stroke-width: 1px; opacity: 1;"/><path class="choroplethlocation" fill="rgb(246, 251, 255)" d="M48.807752041091106,267.70284022598844L43.12440092149126,275.87291752610554L42.6868458871117,276.0541869771282L41.913007597004196,276.1732750872088L41.056182710502185,276.4258684703018L40.82310524308636,275.6352101567727L38.36626830279533,276.6118850359485L37.89020889424182,276.72458505351005L36.56494342512528,276.72458505351005L35.85609958092252,276.29400417518355L35.801947310393786,276.1122072669805L36.40342431519326,273.96375695820643L37.377227483053815,273.08841246403426L39.99476304432994,270.73560180100276L41.946530431140786,270.9944660639085L42.07933242791347,271.09796488398797L42.3346217032624,271.3633344521195L42.846255168321676,271.85181840759105L43.51366432068076,271.7717621288657L44.314578746052234,271.2111337523761L44.25819943409499,270.5146558487377L43.97876434115102,266.56833843714367L44.37763918229581,266.2519227352127L44.630701416216226,266.1459038419375L45.29342206030381,266.10212489595824ZM67.82967476591176,276.6613487982063L63.7445775095006,274.7414046612839L52.79474226193477,275.7774477764401L43.87215938434255,275.442571073193L50.201118092840716,267.4323132987588L51.594484144591064,267.161844977883L60.483954432520534,260.5717363586964L66.75835062601763,260.7095785018596L75.4870636866099,264.65894344383014L77.3774702214254,266.65478280838806L77.12493544468603,275.0663768908089Z" style="stroke: rgb(68, 68, 68); stroke-opacity: 1; stroke-width: 1px; opacity: 1;"/><path class="choroplethlocation" fill="rgb(247, 251, 255)" d="M270.4968914732951,220.85778565661485L264.13282755911786,219.71496176558958L267.3457450644411,211.51171326945587L270.8722651667316,214.04227700230604L281.97043309471695,215.11008476099732L272.71590383154586,222.74145246079206L272.25549231934565,222.23491774847707L271.1193495526069,221.2739493720087Z" style="stroke: rgb(68, 68, 68); stroke-opacity: 1; stroke-width: 1px; opacity: 1;"/><path class="choroplethlocation" fill="rgb(247, 251, 255)" d="M488.02656218664015,239.65231573029905L486.5934610272943,240.57097031962348L486.59111677315934,240.575483008834L485.5122324136776,241.3499659688291L485.4414359387871,241.4007776772146L485.1173428045632,241.50691378319652L482.4841007405802,242.737236959827L480.18409440195035,242.13265381829797L479.33500555409455,241.6539571238418L479.1123014112288,240.06273602306055L479.82641982723555,237.7462026927751L481.331255163126,235.48669334433498L480.2842526598863,234.44244533970414L484.2378372593006,231.351194624011L489.5331557131317,231.0137392412148L495.2057232637091,225.26457318676285L500.13475200887785,226.4131991067734L502.14518435542806,230.88468805105867L501.39766031799127,231.77497716534435L501.358276848516,231.83194254083492L501.3034213017469,231.88011696331841L501.2259437025708,231.92330984576392L496.10187301333275,233.0852394079934L495.8669787489615,233.19870130814797L494.73909947805,233.2864936255205L494.00669587978615,233.59798639376686L493.6757458022151,233.77169562520248L493.39343899795574,233.84565684317522L493.14875747256986,233.89131119246304L491.1620020927865,235.19237223763048L490.7283736840851,235.80914550066427Z" style="stroke: rgb(68, 68, 68); stroke-opacity: 1; stroke-width: 1px; opacity: 1;"/><path class="choroplethlocation" fill="rgb(247, 251, 255)" d="M417.4381398509697,219.89775498180052L413.6113794002822,230.43506010788178L401.36224129815105,229.15773463583582L397.69313193807244,224.2348009514185L403.47634828384156,215.4672318785315L409.3441922038998,214.53539085969533L413.5934458561468,219.862649776122Z" style="stroke: rgb(68, 68, 68); stroke-opacity: 1; stroke-width: 1px; opacity: 1;"/><path class="choroplethlocation" fill="rgb(247, 251, 255)" d="M314.50217518935295,265.4324887021712L306.6646889447006,267.45118454454905L304.4905690531434,262.47427440866386L304.0074182758305,252.09520643672386L311.5478875215222,250.47415470206897L323.55363343804186,252.18944545296836L323.3233690755885,252.50826401538734L324.0798598850938,252.82286292036315L324.8180655123434,252.5837489985488L324.4501348257857,253.81735413096885L323.78641787369037,256.4179524561155Z" style="stroke: rgb(68, 68, 68); stroke-opacity: 1; stroke-width: 1px; opacity: 1;"/><path class="choroplethlocation" fill="rgb(246, 251, 255)" d="M306.6646889447006,267.45118454454905L303.74662000326236,267.52889656913885L287.94423730169615,267.9717261753226L281.608890500679,260.00050023224367L281.61891218710736,255.63755025442924L287.4640168420529,249.47772948180182L299.3646815669507,249.97025727565688L299.3349681457836,250.2051515400276L299.9898941448721,250.58831987846452L301.06561376127036,250.8389792518965L301.73472249787767,250.82221783482828L302.13383176443546,251.29698790360726L302.875202134767,251.6958627447516L303.7309135005547,251.61170402128982L304.0074182758305,252.09520643672386L304.4905690531434,262.47427440866386Z" style="stroke: rgb(68, 68, 68); stroke-opacity: 1; stroke-width: 1px; opacity: 1;"/><path class="choroplethlocation" fill="rgb(246, 251, 255)" d="M495.2057232637091,225.26457318676285L489.5331557131317,231.0137392412148L484.2378372593006,231.351194624011L480.2842526598863,234.44244533970414L477.1954634110354,231.5004650060846L478.25787938521466,215.96181089475522L473.9840110645467,216.02791886137447L475.53057412404814,215.2667395435983L475.2668455338111,214.7744461751563L489.4736702644454,213.95964204403208L497.58519981753057,216.84295741791266Z" style="stroke: rgb(68, 68, 68); stroke-opacity: 1; stroke-width: 1px; opacity: 1;"/><path class="choroplethlocation" fill="rgb(247, 251, 255)" d="M164.40474025643402,298.32038160633374L164.59995801956273,281.3584135966744L162.07074223283945,275.6953402753461L164.42601436271224,275.70659269519683L164.97509728758553,274.4137951458565L163.06892564370804,273.8742064502321L165.0925444197708,271.7299757989017L180.07355907863354,270.35981786309185L188.40779277458446,275.3350870210834L187.617720524589,295.26259511842363L186.60980845905794,298.4911019137471L183.20524817816255,298.48055277013736L182.77847671280688,298.4797322811901L181.28817575255619,298.4612712798739L181.07080478784798,298.4533008158137L180.96660269152812,298.4558208890089L180.54639513775078,298.4473815741212L177.65129988683975,298.41092842231546L177.1407213361419,298.4067087648714L176.7900209174807,298.39715592926996L172.201143447363,298.35554541836564L172.1117687584495,298.36023392663674L172.10491181510307,298.36228514900495L170.9856476781391,298.36052695840317L170.6858175742167,298.3639847332529L170.67251393199842,298.36656341280195Z" style="stroke: rgb(68, 68, 68); stroke-opacity: 1; stroke-width: 1px; opacity: 1;"/><path class="choroplethlocation" fill="rgb(247, 251, 255)" d="M122.92357357435407,236.40335531764413L114.2395771613946,232.84307795580253L107.26805839437282,227.0211814167983L107.8326720028929,216.09613665671577L115.67332299062795,216.00916482829052L115.03562725943522,210.61034755438004L115.05256449556435,210.6104647670868L115.65310379870965,210.61251598945546L116.65943349269978,210.61591515795135L119.71112491985755,210.6114024687413L121.60223473091423,210.62148276152357L124.77412778886685,210.64603882359188L129.68827052027711,210.66379654866796L131.56900700678446,210.67118094919442L133.25481876193044,210.69368578889498L133.25956587655483,210.6936271825416L132.43907692915187,231.1975287654327L132.3284867403123,233.3165586848072L125.1049606537307,233.20391727359993Z" style="stroke: rgb(68, 68, 68); stroke-opacity: 1; stroke-width: 1px; opacity: 1;"/><path class="choroplethlocation" fill="rgb(246, 251, 255)" d="M304.0074182758305,252.09520643672386L303.7309135005547,251.61170402128982L302.875202134767,251.6958627447516L302.13383176443546,251.29698790360726L301.73472249787767,250.82221783482828L301.06561376127036,250.8389792518965L299.9898941448721,250.58831987846452L299.3349681457836,250.2051515400276L299.3646815669507,249.97025727565688L301.9883707953313,247.00653398493114L301.5618923617422,239.19846812967808L309.4902184541433,235.2786407898143L321.2091448771908,238.22917765102875L323.8556319770392,241.3023776098794L326.84988917787905,245.3330295639962L323.55363343804186,252.18944545296836L311.5478875215222,250.47415470206897Z" style="stroke: rgb(68, 68, 68); stroke-opacity: 1; stroke-width: 1px; opacity: 1;"/><path class="choroplethlocation" fill="rgb(196, 218, 238)" d="M210.1086705190295,245.0833664985721L210.28320023941313,243.82708070739136L210.32223207076817,243.56311769174135L210.0737997387649,243.54037842662729L210.15719657963325,242.47262927428937L211.42713765115246,237.16641003872837L213.7849884605747,237.2659236267773L215.90753476115339,237.4335964038146L217.12771903864802,237.5159969366755L218.95565120075466,237.41202926576898L220.50338638732325,240.70054896695956L226.27640522760393,236.99082540398422L230.0414531881744,237.46260654874095L234.59821437663712,237.97089945165726L240.1834584606687,240.39825739619528L240.42901908135588,240.35359935491488L240.51985892910312,240.42691590300046L240.7704010898284,240.70195551944107L242.73963316994946,241.46249016732963L243.96397849853383,241.60285238368897L244.46242553408132,241.94294505238759L244.78851128432075,252.368605075269L240.51815934485566,257.07352312509056L234.90232274435644,257.2760666823924L224.846820449461,252.86248081525218L209.52090740092285,248.83346983903039Z" style="stroke: rgb(68, 68, 68); stroke-opacity: 1; stroke-width: 1px; opacity: 1;"/><path class="choroplethlocation" fill="rgb(225, 237, 248)" d="M271.75411496612924,242.7531778879479L262.54418513788596,241.3370139647309L256.2835028310817,237.64750959367348L250.516637657907,234.1842843530394L245.90449346549556,225.7159593205406L248.88474374787603,221.29135545896406L254.25970823595884,220.4106777866341L263.2422454130656,221.69972452935735L264.13282755911786,219.71496176558958L270.4968914732951,220.85778565661485L271.1193495526069,221.2739493720087L272.25549231934565,222.23491774847707L272.71590383154586,222.74145246079206L277.23427785853966,235.0391166235263L279.86318305237285,242.3628009680442Z" style="stroke: rgb(68, 68, 68); stroke-opacity: 1; stroke-width: 1px; opacity: 1;"/></g></g></g><g class="layer frontplot"><g class="scatterlayer"/></g></g></g><g class="funnelarealayer"/><g class="pielayer"/><g class="iciclelayer"/><g class="treemaplayer"/><g class="sunburstlayer"/><g class="glimages"/><defs id="topdefs-800f16"><g class="clips"/></defs><g class="layer-above"><g class="imagelayer"/><g class="shapelayer"/></g><g class="infolayer"><g class="cbcoloraxis colorbar" transform=""><rect class="cbbg" x="575" y="0" width="125.03125" height="500" style="fill: rgb(0, 0, 0); fill-opacity: 0; stroke: rgb(68, 68, 68); stroke-opacity: 1; stroke-width: 0;"/><g class="cbfills" transform="translate(0,34)"><rect class="cbfill gradient_filled" x="585" y="0" width="30" height="456" style="fill: url('#g800f16-cbcoloraxis');"/></g><g class="cblines" transform="translate(0,34)"/><g class="cbaxis crisp" transform=""><g class="ycbcoloraxistick"><text text-anchor="start" x="617.9" y="4.199999999999999" transform="translate(0,490)" style="font-family: 'Open Sans', verdana, arial, sans-serif; font-size: 12px; fill: rgb(42, 63, 95); fill-opacity: 1; white-space: pre; opacity: 1;">0</text></g><g class="ycbcoloraxistick"><text text-anchor="start" x="617.9" y="4.199999999999999" style="font-family: 'Open Sans', verdana, arial, sans-serif; font-size: 12px; fill: rgb(42, 63, 95); fill-opacity: 1; white-space: pre; opacity: 1;" transform="translate(0,404.94000000000005)">10k</text></g><g class="ycbcoloraxistick"><text text-anchor="start" x="617.9" y="4.199999999999999" style="font-family: 'Open Sans', verdana, arial, sans-serif; font-size: 12px; fill: rgb(42, 63, 95); fill-opacity: 1; white-space: pre; opacity: 1;" transform="translate(0,319.89)">20k</text></g><g class="ycbcoloraxistick"><text text-anchor="start" x="617.9" y="4.199999999999999" style="font-family: 'Open Sans', verdana, arial, sans-serif; font-size: 12px; fill: rgb(42, 63, 95); fill-opacity: 1; white-space: pre; opacity: 1;" transform="translate(0,234.83000000000004)">30k</text></g><g class="ycbcoloraxistick"><text text-anchor="start" x="617.9" y="4.199999999999999" style="font-family: 'Open Sans', verdana, arial, sans-serif; font-size: 12px; fill: rgb(42, 63, 95); fill-opacity: 1; white-space: pre; opacity: 1;" transform="translate(0,149.78000000000003)">40k</text></g><g class="ycbcoloraxistick"><text text-anchor="start" x="617.9" y="4.199999999999999" style="font-family: 'Open Sans', verdana, arial, sans-serif; font-size: 12px; fill: rgb(42, 63, 95); fill-opacity: 1; white-space: pre; opacity: 1;" transform="translate(0,64.72000000000003)">50k</text></g></g><g class="cbtitleunshift" transform=""><g class="cbtitle" transform=""><text class="ycbcoloraxistitle" x="585.28" y="23.5" text-anchor="start" style="font-family: 'Open Sans', verdana, arial, sans-serif; font-size: 14px; fill: rgb(42, 63, 95); opacity: 1; font-weight: normal; white-space: pre;">Raw attendance</text></g></g><rect class="cboutline" x="585" y="34" width="30" height="456" style="stroke: rgb(68, 68, 68); stroke-opacity: 1; fill: none; stroke-width: 0;"/></g><g class="g-gtitle"/></g></svg>